<svg xmlns="http://www.w3.org/2000/svg" id="Layer_1" data-name="Layer 1" viewBox="0 0 128 128"><defs><style>.cls-1{fill="#00A651";}</style></defs><path class="cls-1" d="M128,70.48c-.29,1.51-.52,3-.89,4.51a29.48,29.48,0,0,1-10.17,16.06c-.19.16-.39.32-.57.49a.21.21,0,0,0-.06.12c1.69,2.37,3.46,4.63,5,7a23.65,23.65,0,0,1,3.8,8.63c1.21,7.14-4.34,14.39-11.57,14.91-2.94.21-5.91.11-8.87.11-6.91,0-13.83,0-20.75,0a13.15,13.15,0,0,1-13.4-13.58A13.86,13.86,0,0,1,72.6,102c2.12-3.52,4.4-6.94,6.7-10.54-.49-.43-1.27-1.1-2-1.8a30.06,30.06,0,0,1,4.55-47.37,1.87,1.87,0,0,0,1-1.76c.19-5.71,3.33-9.44,8.33-11.71,6.72-3.06,14.92-1.12,19.23,4.42a11.64,11.64,0,0,1,2.54,7.42,1.53,1.53,0,0,0,.79,1.51,29.51,29.51,0,0,1,14.06,22.2,5.93,5.93,0,0,0,.21.83Zm-5-10.35a26.28,26.28,0,0,0-27.6-18.64c-10.5.82-22,10.41-22.76,19.12a3.84,3.84,0,0,0,.48,0c4.17-.57,7.16-2.9,9.53-6.23,2.21-3.12,5.82-3.61,8.65-1.1a29.33,29.33,0,0,0,12.2,6.55c1.46.38,2.07,1.25,1.79,2.37s-1.28,1.65-2.8,1.25a32.16,32.16,0,0,1-13.23-7c-1.66-1.48-2.53-1.36-3.84.47A17,17,0,0,1,76.8,63.6a47.68,47.68,0,0,1-5,1.08C70.46,72,73.49,83.23,83.35,89.75A26.37,26.37,0,0,0,113,89.38c9.74-6.86,12.45-18.15,10.86-25.64-.32,0-.64.12-1,.14-3.85.29-7.71.61-11.57.82a1.81,1.81,0,0,1-2.08-2c0-1.1.83-1.76,2.14-1.77s2.84.07,4.24,0C118.07,60.74,120.53,60.41,123,60.13Zm-43.76,38c-2,3-3.9,5.91-4.82,9.34a7.23,7.23,0,0,0-.2,1.6c-.07,5.34,4.17,9.49,9.76,9.51,9.24,0,18.49,0,27.73,0,.46,0,.92,0,1.37-.07a9.3,9.3,0,0,0,8.3-10.31c-.58-3.79-2.8-6.84-4.93-10.06a18.26,18.26,0,0,1-6.33,6.16c-4.71,2.68-8.52,2.22-12.09-1.29a27.74,27.74,0,0,1-3.89,2.46c-2.35,1-4.74.53-7-.43A17.23,17.23,0,0,1,79.28,98.15Zm7.5-58.46c9.38-2.73,11.35-2.73,22.15,0,.31-3.93-4.83-8.2-10.14-8.42C92.47,30.94,86.82,34.88,86.78,39.69Zm-4.22,54c-.18.75-.59,1.42-.4,1.78,1.76,3.33,4.3,5.82,8.09,6.67a4.34,4.34,0,0,0,5.41-4.34A31.14,31.14,0,0,1,82.56,93.7Zm17.54,4.5a4.32,4.32,0,0,0,5.7,3.88c3.62-.92,6-3.34,7.77-6.53a1.51,1.51,0,0,0-.28-1.24c-.14-.19-.73-.19-1-.06-.92.37-1.76,1-2.7,1.24C106.43,96.44,103.29,97.3,100.1,98.2Z"></path><path class="cls-1" d="M48.38,91.81a46.06,46.06,0,0,1,7.73,11.7,13,13,0,0,1-11.83,18.82q-14.18.15-28.37,0A13,13,0,0,1,4.07,103.51,45.52,45.52,0,0,1,11.83,91.8C2.93,84.39-1.22,75,.31,63.44a29,29,0,0,1,11-19.23,30.15,30.15,0,1,1,37,47.6Zm-29.05-48c.7,1.86,1.51,3.6,2,5.44,1.19,4.39-.42,7.28-4.71,8.72a5.78,5.78,0,0,0-3.2,2.45A14.8,14.8,0,0,1,5,66.73c-1.1.34-1.35.83-1.32,1.91a26.4,26.4,0,0,0,52.77-.09,1.53,1.53,0,0,0-1.3-1.82,14.35,14.35,0,0,1-8.1-5.91A7.33,7.33,0,0,0,43,57.73c-3.41-1.11-5.12-3.88-4.36-7.38a68.41,68.41,0,0,1,2.11-6.61C35.29,40.64,25.25,40.62,19.33,43.78ZM45.18,93.94c-1.83.77-1.83.77-2.15,2.52a13.14,13.14,0,0,1-26-.81c-.14-1.14-1-1.22-1.67-1.55-.22-.11-.84.35-1.13.67a38,38,0,0,0-6.88,10.65,10.1,10.1,0,0,0-.85,3.49c-.21,5.43,4,9.66,9.68,9.69,7.08,0,14.17,0,21.25,0,2.58,0,5.18.1,7.75-.08a9.27,9.27,0,0,0,7.87-12.58,30,30,0,0,0-1.62-3.38A38.41,38.41,0,0,0,45.18,93.94ZM16,45.45A26.81,26.81,0,0,0,4.14,63.1,11,11,0,0,0,10,58.74a10.24,10.24,0,0,1,5.9-4.52c1.76-.53,2.39-1.55,1.94-3.34S16.7,47.43,16,45.45Zm28.12,0c-.66,2-1.39,3.76-1.82,5.59a2.36,2.36,0,0,0,1.88,3.15,10.46,10.46,0,0,1,6.07,4.66,10.81,10.81,0,0,0,5.77,4.25A26.78,26.78,0,0,0,44.15,45.45Zm-5,51.06a31,31,0,0,1-18.09,0,9.34,9.34,0,0,0,18.09,0Z"></path><path class="cls-1" d="M43.11,21.32c0-7.8,4.91-14.1,11.57-15.45A11.93,11.93,0,0,1,62.57,7a2.52,2.52,0,0,0,2.49.17c6.75-3.63,14.67-.65,18.15,6.69,3.06,6.45,1.88,12.52-2.51,18C77,36.42,72,39.27,66.49,41.15c-3.35,1.15-6.39-.22-9.26-1.85A1.61,1.61,0,0,1,56.71,37a1.7,1.7,0,0,1,2.22-.89c.94.33,1.84.79,2.76,1.17a5.9,5.9,0,0,0,4.73,0c4-1.68,7.82-3.76,10.75-7.09C80.84,26,82.28,21.28,80.09,16S71.9,7.63,66.44,10.6a4.68,4.68,0,0,1-4.69.08C54.51,6.48,46.37,13.1,46.9,21.43a14.47,14.47,0,0,0,4.49,9.36c1.46,1.48,1.67,2.46.72,3.4s-2,.68-3.4-.79C45.25,29.88,43.15,25.75,43.11,21.32Z"></path><path class="cls-1" d="M97.48,76.29A6.85,6.85,0,0,1,92.57,74a1.9,1.9,0,0,1-.1-2.77,1.88,1.88,0,0,1,2.69.08c2,1.68,3.48,1.69,5.4,0a1.88,1.88,0,1,1,2.59,2.7A7.36,7.36,0,0,1,97.48,76.29Z"></path><path class="cls-1" d="M84.19,71.19A14.33,14.33,0,0,1,84.06,73a1.69,1.69,0,0,1-1.87,1.47,1.65,1.65,0,0,1-1.73-1.62,29,29,0,0,1,0-3.36,1.83,1.83,0,0,1,3.63-.21A16.52,16.52,0,0,1,84.19,71.19Z"></path><path class="cls-1" d="M115.41,71.2a16.75,16.75,0,0,1-.1,1.74,1.7,1.7,0,0,1-1.8,1.55,1.63,1.63,0,0,1-1.8-1.54,21.64,21.64,0,0,1,0-3.6,1.65,1.65,0,0,1,1.79-1.56,1.71,1.71,0,0,1,1.81,1.55C115.4,70,115.38,70.58,115.41,71.2Z"></path><path class="cls-1" d="M30.1,82.75a12.35,12.35,0,0,1-9.16,1.73,4.4,4.4,0,0,1-3.68-4.75c.49-4.36,5.6-9.24,10-9.45a27,27,0,0,1,6.55.2c4.83,1,7.63,4.32,9,8.9a4.2,4.2,0,0,1-3.59,5.1A12.12,12.12,0,0,1,30.1,82.75ZM37,81a6.29,6.29,0,0,0,1.53-.25,1,1,0,0,0,.55-.86c-.55-3.4-4.72-6.32-8.1-5.72a4.9,4.9,0,0,1-1.48,0,7.58,7.58,0,0,0-8.33,5.39c-.29.86,0,1.14.79,1.24A7.9,7.9,0,0,0,28,79.55a3,3,0,0,1,4.11,0A8.15,8.15,0,0,0,37,81Z"></path><path class="cls-1" d="M16.38,70.89c0,.58,0,1.16-.09,1.74A1.71,1.71,0,0,1,14.5,74.2a1.63,1.63,0,0,1-1.81-1.52,20.61,20.61,0,0,1,0-3.6,1.63,1.63,0,0,1,1.77-1.57,1.71,1.71,0,0,1,1.85,1.64,14.42,14.42,0,0,1,0,1.74Z"></path><path class="cls-1" d="M47.54,70.92c0,.54,0,1.09,0,1.62a1.71,1.71,0,0,1-1.71,1.66A1.61,1.61,0,0,1,44,72.76a18.26,18.26,0,0,1,0-3.84,1.6,1.6,0,0,1,1.89-1.41,1.66,1.66,0,0,1,1.67,1.55,14.41,14.41,0,0,1,0,1.86Z"></path></svg>