<svg xmlns="http://www.w3.org/2000/svg" id="Layer_1" data-name="Layer 1" viewBox="0 0 128 128"><defs><style>.cls-1{fill="#00A651";}</style></defs><path class="cls-1" d="M111.11,0a6.83,6.83,0,0,1,1.42,1.8c.89,2.46,1.66,5,2.42,7.47.42,1.36-.11,2.42-1.22,2.7s-2-.34-2.42-1.74-.76-2.53-1.19-3.95c-4.19,4.19-9.45,6.19-14.55,8.51-4.89,2.23-8,6-8.52,11.42a12.84,12.84,0,0,0,.56,4.28c.55,2.16,2.18,3.21,4.39,3.62.63-3,1.27-6,1.88-9a2.26,2.26,0,0,1,1.46-2,1.87,1.87,0,0,1,2.33,2.3c-.59,3.15-1.27,6.28-1.92,9.42,0,.28-.09.56-.13.81,1.59.92,1.59.92,2.52-.54,1.6-2.48,3.19-5,4.8-7.45.49-.76,1.23-1.31,2.09-.92a2.87,2.87,0,0,1,1.41,1.52,2.49,2.49,0,0,1-.5,1.71c-1.42,2.3-2.9,4.56-4.36,6.84-.23.34-.43.7-.68,1.12,1,.42,2,.87,2.95,1.19a2.23,2.23,0,0,0,1.3-.08c4.06-1.47,6.39-4.48,7.47-8.55A30.59,30.59,0,0,0,113,18.65a12.57,12.57,0,0,1-.15-1.36,1.82,1.82,0,0,1,1.57-2,1.78,1.78,0,0,1,2.14,1.6,81.61,81.61,0,0,1,.29,10.82,23.79,23.79,0,0,1-2.11,7.62,13.83,13.83,0,0,1-8.18,7.29,2.93,2.93,0,0,0-1.44,1.34Q98.84,57.22,92.63,70.57c-.12.27-.23.54-.37.79a1.9,1.9,0,0,1-2.51,1,1.88,1.88,0,0,1-.9-2.62c.25-.62.54-1.21.89-2l-9.93-4.09c-.35,1-.69,1.91-1,2.83-.63,1.76-1.54,2.41-2.76,2s-1.44-1.51-.85-3.19c3.43-9.68,6.84-19.37,10.3-29a2.08,2.08,0,0,0-.25-2c-2.7-4.26-2.66-8.74-.76-13.26a17.89,17.89,0,0,1,9.21-9.42C96.76,10,99.88,8.62,102.9,7a12.23,12.23,0,0,0,6-6c.18-.42.64-.72,1-1.08Zm-9.47,42.3-12.5-5.11c-2.71,7.67-5.38,15.21-8.08,22.86l10.32,4.22Z"></path><path class="cls-1" d="M60.74,25.35a54.2,54.2,0,0,1,19.59,3.21c.86.32,1.59.76,1.74,1.75.2,1.42-1.15,2.39-2.67,2A80.57,80.57,0,0,0,71.12,30c-16.48-2.79-30.86,1.58-42.58,13.49C9.61,62.74,10.4,93,30.06,111.48a47.39,47.39,0,0,0,52.05,8.38c.38-.17.74-.38,1.13-.52a1.91,1.91,0,0,1,2.54.92,1.83,1.83,0,0,1-1,2.5,65.75,65.75,0,0,1-6.45,2.66A51.32,51.32,0,1,1,49.15,27.07,50.29,50.29,0,0,1,60.74,25.35Z"></path><path class="cls-1" d="M89.39,73.42c1.87-.23,4.15-.4,6.4-.79,9.92-1.71,18.71,7.59,16.13,17.28a50.67,50.67,0,0,1-20.25,28.82,1.91,1.91,0,0,1-2.87-.26c-.7-1-.45-2,.74-2.87A47.1,47.1,0,0,0,106,95.43a33,33,0,0,0,2.39-7.32,10.28,10.28,0,0,0-12-11.7c-7.6,1.34-15,1-22.08-2.43a25.61,25.61,0,0,1-6.18-4.14c-6.5-6-6.28-14.55.33-20.42a25.62,25.62,0,0,1,9-5.05,1.94,1.94,0,0,1,2.68,1.06A1.91,1.91,0,0,1,78.67,48a21.22,21.22,0,0,0-7.85,4.49c-5,4.7-4.87,10.66.34,15.13a24.58,24.58,0,0,0,13,5.4C85.72,73.2,87.35,73.25,89.39,73.42Z"></path><path class="cls-1" d="M45,40.64a9.05,9.05,0,1,1-9.08,9A9.08,9.08,0,0,1,45,40.64Zm-.07,3.81a5.27,5.27,0,0,0-5.21,5.26A5.35,5.35,0,0,0,45,55a5.27,5.27,0,0,0,5.24-5.37A5.19,5.19,0,0,0,44.9,44.45Z"></path><path class="cls-1" d="M22.56,71.68a9,9,0,1,1,9.06,9A9.06,9.06,0,0,1,22.56,71.68Zm3.79-.1a5.27,5.27,0,0,0,5.27,5.34,5.33,5.33,0,0,0,5.24-5.26,5.26,5.26,0,0,0-5.23-5.25A5.21,5.21,0,0,0,26.35,71.58Z"></path><path class="cls-1" d="M86,105a9,9,0,1,1,9.07-9A9,9,0,0,1,86,105Zm0-3.78A5.26,5.26,0,1,0,80.79,96,5.22,5.22,0,0,0,86,101.25Z"></path><path class="cls-1" d="M40.21,105a9,9,0,1,1,9-9A9,9,0,0,1,40.21,105Zm5.21-9a5.23,5.23,0,0,0-5.22-5.24,5.26,5.26,0,1,0,0,10.51A5.21,5.21,0,0,0,45.42,96Z"></path><path class="cls-1" d="M71.42,108.14a9,9,0,1,1-9.07-9A9,9,0,0,1,71.42,108.14ZM62.36,103a5.23,5.23,0,0,0-5.23,5.23,5.25,5.25,0,1,0,10.5-.06A5.19,5.19,0,0,0,62.36,103Z"></path></svg>