<svg xmlns="http://www.w3.org/2000/svg" id="Layer_1" data-name="Layer 1" viewBox="0 0 128 128"><defs><style>.cls-1{fill="#00A651";}</style></defs><path class="cls-1" d="M104.11,22.82c2.18,1.3,4.44,2.48,6.5,3.94a40.17,40.17,0,0,1,14.8,19.39,41.38,41.38,0,0,1-10.69,44.66,40.85,40.85,0,0,1-26.73,11,39.41,39.41,0,0,1-21.43-5.16,3.23,3.23,0,0,0-3.29-.21c-6.35,2.85-12.76,5.56-19.15,8.32-1.95.84-3.18.63-3.76-.66s.08-2.38,2.12-3.26Q51,97.19,59.61,93.5a6.62,6.62,0,0,0,1.13-.35A43.15,43.15,0,0,1,45.1,62.31L44,62.78,18.76,73.66c-1.78.77-3,.51-3.55-.75s0-2.34,1.83-3.12Q30.66,63.91,44.29,58a1.44,1.44,0,0,0,1-1.37,39.46,39.46,0,0,1,4.07-14.49A40.87,40.87,0,0,1,77.24,20.11,39.62,39.62,0,0,1,99.06,21a5.69,5.69,0,0,0,.72.12ZM72.78,95.12c1.76.51,3.51,1.07,5.29,1.51a1.86,1.86,0,0,0,1.4-.27q5.48-4.24,10.87-8.61a1.49,1.49,0,0,0,.48-1.2q-1.16-6.09-2.44-12.14a1.43,1.43,0,0,0-.72-.89c-3.6-1.46-7.21-2.9-10.83-4.29a1.53,1.53,0,0,0-1.22.16q-5.1,3.52-10.11,7.16a1.3,1.3,0,0,0-.45,1q1,7,2,14a1.35,1.35,0,0,0,.58.89C69.36,93.4,71.06,94.25,72.78,95.12ZM50.37,51.86a4.06,4.06,0,0,0-.1.4,36.78,36.78,0,0,0-.65,12.29,1.52,1.52,0,0,0,.64,1c3.87,2.5,7.79,5,11.66,7.46a1,1,0,0,0,1.29,0c3.33-2.39,6.68-4.73,10-7.13a1.82,1.82,0,0,0,.68-1.17q.44-5.74.75-11.5a1.49,1.49,0,0,0-.53-1.11q-4.45-3.12-9-6.12a1.49,1.49,0,0,0-1.22-.12c-4.29,1.83-8.55,3.7-12.82,5.58A4.25,4.25,0,0,0,50.37,51.86Zm68.33,27.3a3.73,3.73,0,0,0-.18-.8c-1.78-4.31-3.56-8.62-5.4-12.91a1.7,1.7,0,0,0-1.1-.89q-5.31-.91-10.66-1.69a1.49,1.49,0,0,0-1.14.45q-3.72,4.41-7.35,8.89a1.69,1.69,0,0,0-.31,1.23c.78,4.06,1.61,8.1,2.41,12.15a.91.91,0,0,0,.85.87c4.13.76,8.26,1.5,12.35,2.43a3.42,3.42,0,0,0,3.53-1A41.1,41.1,0,0,0,118.7,79.16ZM96.19,42.05c-.6,1.51-1.17,3-1.81,4.52a1.55,1.55,0,0,0,.17,1.65q3,4.72,6,9.49a1.9,1.9,0,0,0,1.49,1c3.38.51,6.77,1,10.14,1.6a1.19,1.19,0,0,0,1.49-.72c2.27-4.27,4.58-8.52,6.84-12.8a1.64,1.64,0,0,0,0-1.25,36.18,36.18,0,0,0-8.07-11.68,1.54,1.54,0,0,0-1.18-.33Q105.18,35,99.08,36.56a1.87,1.87,0,0,0-1.06,1C97.35,39,96.79,40.54,96.19,42.05Zm-4.1-1.47c.63-1.58,1.28-3.14,1.86-4.74a1.41,1.41,0,0,0-.14-1.12q-4.05-5.49-8.19-10.93a1.28,1.28,0,0,0-.93-.45A36.13,36.13,0,0,0,71.1,26.68a1.49,1.49,0,0,0-.73.9q-1.58,6.91-3.05,13.85a1.32,1.32,0,0,0,.41,1.1c3,2.08,6,4.12,9,6.13a1.77,1.77,0,0,0,1.25.22q5.65-1.4,11.29-2.9a1.8,1.8,0,0,0,1-.88C90.93,43.62,91.5,42.09,92.09,40.58Zm-2.72,29c2.5-3,5-6,7.43-9a.9.9,0,0,0,0-.83c-2-3.25-4.09-6.49-6.16-9.76L78.9,53c-.24,3.88-.49,7.67-.69,11.47a1,1,0,0,0,.5.84C82.23,66.8,85.78,68.19,89.37,69.61Zm31.73,4a35.22,35.22,0,0,0,1.62-21.73,4.08,4.08,0,0,0-.42.54c-1.76,3.25-3.53,6.51-5.24,9.79a2,2,0,0,0,0,1.46c1.09,2.75,2.25,5.48,3.39,8.22C120.66,72.45,120.88,73,121.1,73.6ZM52.28,46c3.46-1.43,6.85-2.83,10.22-4.26a1.26,1.26,0,0,0,.52-.81c.5-2.06,1-4.13,1.42-6.2.35-1.55.68-3.12,1.06-4.92A37.39,37.39,0,0,0,52.28,46ZM62.37,88.72c-.44-3-1-5.74-1.2-8.49a5.11,5.11,0,0,0-2.92-4.63c-2.47-1.32-4.77-3-7.35-4.62A37.61,37.61,0,0,0,62.37,88.72Zm42.73,3.86c-3.58-.7-7-1.4-10.49-2a2,2,0,0,0-1.4.4c-2.54,2-5,4-7.55,6-.23.18-.43.38-.71.63C90.7,98.23,100.4,95.84,105.1,92.58ZM107.68,30c-2.85-2.82-13.25-6.73-16.83-6.34,2.14,2.84,4.24,5.67,6.39,8.46a1.14,1.14,0,0,0,1,.23c2-.46,4-1,6-1.46Z"></path><path class="cls-1" d="M.47,95.52c.84-.43,1.67-.9,2.53-1.28q17.31-7.5,34.64-15a6.38,6.38,0,0,1,1.4-.46,2,2,0,0,1,2.2,1.27,2,2,0,0,1-.62,2.38,4.83,4.83,0,0,1-1.2.66Q21.62,90.83,3.81,98.51C1.61,99.45.6,99,0,96.7Z"></path><path class="cls-1" d="M35.75,107.75A2.15,2.15,0,0,1,33,108.87a2.18,2.18,0,0,1-1.12-2.76A2.21,2.21,0,0,1,34.66,105,2.14,2.14,0,0,1,35.75,107.75Z"></path></svg>