<svg xmlns="http://www.w3.org/2000/svg" id="Layer_1" data-name="Layer 1" viewBox="0 0 128 128"><defs><style>.cls-1{fill="#00A651";}</style></defs><path class="cls-1" d="M64.74,0a3.11,3.11,0,0,1,1.14,2.83c-.06,2.12,0,4.24,0,6.36,0,1.49-.7,2.3-1.87,2.3s-1.85-.81-1.87-2.3c0-2.16,0-4.32,0-6.48A3,3,0,0,1,63.24,0Z"></path><path class="cls-1" d="M128,64.47a2.49,2.49,0,0,1-2.56,1.35c-2.24-.06-4.49,0-6.73,0-1.42,0-2.19-.66-2.21-1.81s.75-1.9,2.12-1.92c2.41,0,4.82,0,7.23,0A2.28,2.28,0,0,1,128,63.47Z"></path><path class="cls-1" d="M65.86,19.47c0,3.43,0,6.71,0,10,0,2.16-.3,2.5-2.42,2.8a4.61,4.61,0,0,0,.05,9.15c2.06.31,2.37.66,2.37,2.72,0,3.33,0,6.65,0,10.17h1.56c1.5,0,3-.11,4.49,0,2.08.18,3.41-.17,4.49-2.4,1.5-3.11,4.52-4.33,8-3.94a7.88,7.88,0,0,1,6.75,5.22,1.43,1.43,0,0,0,1.6,1.11c2.65-.06,5.31,0,8.07,0a28.31,28.31,0,0,0-1.75-9.52c-1-2.59-2.31-5-3.39-7.61a3.13,3.13,0,0,1-.21-2.09,1.76,1.76,0,0,1,3.26,0A59,59,0,0,1,102.42,43,40.87,40.87,0,0,1,82.53,92.4c-2.76,1.42-4,3.3-3.76,6.32.06.66,0,1.32,0,2.09,2.14.21,4.35.44,5.47,2.46a8.44,8.44,0,0,1,.94,3.9c0,3.1-1.57,4.35-6.41,5.39,0,2.47-.13,5,0,7.45a7.52,7.52,0,0,1-7.91,8c-4.7-.2-9.42,0-14.12,0-4.54,0-7.57-3-7.58-7.6,0-2.58,0-5.16,0-7.86-2.15-.23-4.35-.5-5.46-2.5a8.21,8.21,0,0,1-1-3.9c0-3,1.79-4.43,6.26-5.29a43.32,43.32,0,0,0,0-4.56c-.19-1.73-1.43-2.73-2.93-3.47a39.33,39.33,0,0,1-17.74-17C20.48,60.86,21.69,46.38,31,32.45c.63-1,1.41-1.57,2.61-1.12s1.48,1.85.55,3.13a34.67,34.67,0,0,0-5.7,11.85c-.64,2.56-1,5.19-1.54,8h2.18c2.88,0,5.75,0,8.63,0,1.58,0,2.16.6,2.31,2.16a4.59,4.59,0,0,0,9.14.33c.37-2.24.68-2.5,3-2.5h10V51.43c0-1.79,0-3.58,0-5.37a1.18,1.18,0,0,0-.89-1.38,8.17,8.17,0,0,1-5.56-7.8,8.33,8.33,0,0,1,5.6-7.94c.34-.13.79-.56.8-.87.06-2.82,0-5.65,0-8.71-1.51.16-2.9.24-4.27.47A37.16,37.16,0,0,0,40,28.06a2.54,2.54,0,0,1-1.73.76,2.26,2.26,0,0,1-1.6-1.25,2.47,2.47,0,0,1,.65-2,35.21,35.21,0,0,1,12.13-7.28c16.3-5.58,30.79-2.53,43.36,9.34.3.28.76.62.77.94,0,.73.06,1.71-.37,2.12a2.73,2.73,0,0,1-2.11.3c-.49-.09-.9-.69-1.32-1.09A36.17,36.17,0,0,0,67.27,19.48C66.86,19.44,66.45,19.47,65.86,19.47ZM75,100.83c0-.91,0-1.74,0-2.56-.16-4.25,1.72-7.11,5.53-9.06C90.73,84,97.14,75.71,99.92,64.64c.53-2.1.71-4.29,1.07-6.58H99.31c-3,0-6.08,0-9.12,0a1.9,1.9,0,0,1-2.21-2,4.6,4.6,0,0,0-9.19-.1c-.21,1.62-.7,2.07-2.35,2.07-3,0-6.08,0-9.12,0H65.87c0,3.09,0,6,0,8.9,0,.28.52.67.88.81a8.34,8.34,0,0,1,5.51,7.87,8.17,8.17,0,0,1-5.51,7.83,1.2,1.2,0,0,0-.94,1.33c0,5,0,10,0,15,0,.32,0,.65.08,1Zm-12.92,0V99.27q0-8.31,0-16.62c0-1.65.56-2.27,2-2.42a4.59,4.59,0,0,0,.2-9.16c-1.88-.28-2.24-.67-2.24-2.6,0-3.08,0-6.16,0-9.24,0-1-.3-1.21-1.22-1.19-2.29.06-4.58.07-6.87,0a1.44,1.44,0,0,0-1.69,1.15,8.06,8.06,0,0,1-7.56,5.36,7.74,7.74,0,0,1-7.68-4.76c-.64-1.46-1.36-2-2.81-1.74a5,5,0,0,1-.87,0H27.19c0,.46,0,.75,0,1,1.41,13.68,8.18,23.79,20.35,30.18,3.7,1.94,5.54,4.74,5.41,8.88,0,.9,0,1.79,0,2.71ZM53,116.37H74.94v-3.94H73.61c-1.83,0-3.66,0-5.5,0a1.88,1.88,0,1,1,0-3.74c.37,0,.75,0,1.12,0,3.33,0,6.66,0,10,0,1.75,0,2.65-1,2.27-2.47-.31-1.22-1.22-1.54-2.38-1.54q-15.16,0-30.34,0a4.71,4.71,0,0,0-.75,0,1.95,1.95,0,0,0-.21,3.85,6.72,6.72,0,0,0,1.49.12H59.66c.94,0,1.74.39,1.82,1.33a3,3,0,0,1-.65,2c-.29.36-1,.43-1.6.44-2.07,0-4.13,0-6.23,0Zm0,3.89c-.11,2.58,1.15,3.93,3.6,3.93q7.43,0,14.85,0c2.5,0,3.69-1.36,3.43-3.93Z"></path><path class="cls-1" d="M9.93,30.84a13.76,13.76,0,0,1,1.56.66q3,1.71,6.06,3.48c1.22.72,1.61,1.76,1.05,2.67a2,2,0,0,1-2.94.57C13.57,37,11.48,35.81,9.4,34.59a1.65,1.65,0,0,1-.91-2.19A6.87,6.87,0,0,1,9.93,30.84Z"></path><path class="cls-1" d="M119.66,94.67c-.06,1.73-1.48,2.65-2.67,2-2.34-1.27-4.63-2.61-6.91-4a1.79,1.79,0,0,1-.65-2.5,1.84,1.84,0,0,1,2.59-.66c2.21,1.23,4.41,2.48,6.56,3.82A4.39,4.39,0,0,1,119.66,94.67Z"></path><path class="cls-1" d="M17.25,89.18c.35.3,1.18.68,1.33,1.24a2.32,2.32,0,0,1-.5,2.06c-2.36,1.53-4.83,2.9-7.3,4.25a1.49,1.49,0,0,1-2-.63,1.64,1.64,0,0,1,.18-2.37c2.48-1.57,5.07-3,7.61-4.44A4.21,4.21,0,0,1,17.25,89.18Z"></path><path class="cls-1" d="M110.72,38.74c-.4-.36-1.23-.76-1.36-1.33a2.38,2.38,0,0,1,.6-2c2.29-1.49,4.7-2.83,7.1-4.14a1.63,1.63,0,0,1,2.26.72,1.57,1.57,0,0,1-.27,2.26c-2.46,1.54-5,2.93-7.54,4.37A3.79,3.79,0,0,1,110.72,38.74Z"></path><path class="cls-1" d="M97.1,9.87a15.74,15.74,0,0,1-.63,1.56c-1.15,2-2.31,4-3.49,6-.71,1.22-1.84,1.6-2.8,1s-1.14-1.63-.46-2.83c1.19-2.1,2.39-4.18,3.61-6.26.49-.83,1.25-1.37,2.18-1A6.9,6.9,0,0,1,97.1,9.87Z"></path><path class="cls-1" d="M38.75,17.23c-.32.36-.71,1.2-1.27,1.34A2.36,2.36,0,0,1,35.42,18c-1.52-2.33-2.87-4.76-4.2-7.21A1.6,1.6,0,0,1,32,8.64a1.54,1.54,0,0,1,2.25.24c1.57,2.49,3,5.08,4.44,7.64A3.15,3.15,0,0,1,38.75,17.23Z"></path><path class="cls-1" d="M5.75,65.8c-1.24,0-2.49,0-3.74,0a1.85,1.85,0,1,1-.07-3.7q3.79-.09,7.61,0a1.86,1.86,0,1,1-.05,3.71C8.25,65.83,7,65.8,5.75,65.8Z"></path></svg>