<svg width="159" height="28" viewBox="0 0 159 28" fill="none" xmlns="http://www.w3.org/2000/svg">
<path d="M33.2676 4.39062L35.5918 10.1914L37.916 4.39062H39.1318V11.5H38.1943V8.73145L38.2822 5.74316L35.9482 11.5H35.2305L32.9014 5.75781L32.9941 8.73145V11.5H32.0566V4.39062H33.2676Z" fill="white"/>
<path d="M43.9072 10.9775C43.5557 11.391 43.0397 11.5977 42.3594 11.5977C41.7962 11.5977 41.3665 11.4349 41.0703 11.1094C40.7773 10.7806 40.6292 10.2956 40.626 9.6543V6.2168H41.5293V9.62988C41.5293 10.4307 41.8548 10.8311 42.5059 10.8311C43.196 10.8311 43.6549 10.5739 43.8828 10.0596V6.2168H44.7861V11.5H43.9268L43.9072 10.9775Z" fill="white"/>
<path d="M47.0176 6.2168L47.0469 6.88086C47.4505 6.37305 47.9779 6.11914 48.6289 6.11914C49.7454 6.11914 50.3086 6.74902 50.3184 8.00879V11.5H49.415V8.00391C49.4118 7.62305 49.3239 7.34147 49.1514 7.15918C48.9821 6.97689 48.7168 6.88574 48.3555 6.88574C48.0625 6.88574 47.8053 6.96387 47.584 7.12012C47.3626 7.27637 47.1901 7.48145 47.0664 7.73535V11.5H46.1631V6.2168H47.0176Z" fill="white"/>
<path d="M52.6621 11.5H51.7588V6.2168H52.6621V11.5ZM51.6855 4.81543C51.6855 4.66895 51.7295 4.54525 51.8174 4.44434C51.9085 4.34342 52.042 4.29297 52.2178 4.29297C52.3936 4.29297 52.527 4.34342 52.6182 4.44434C52.7093 4.54525 52.7549 4.66895 52.7549 4.81543C52.7549 4.96191 52.7093 5.08398 52.6182 5.18164C52.527 5.2793 52.3936 5.32812 52.2178 5.32812C52.042 5.32812 51.9085 5.2793 51.8174 5.18164C51.7295 5.08398 51.6855 4.96191 51.6855 4.81543Z" fill="white"/>
<path d="M56.2314 10.8604C56.5537 10.8604 56.8353 10.7627 57.0762 10.5674C57.3171 10.3721 57.4505 10.1279 57.4766 9.83496H58.3311C58.3148 10.1377 58.2106 10.4258 58.0186 10.6992C57.8265 10.9727 57.5693 11.1908 57.2471 11.3535C56.9281 11.5163 56.5895 11.5977 56.2314 11.5977C55.512 11.5977 54.9391 11.3584 54.5127 10.8799C54.0895 10.3981 53.8779 9.74056 53.8779 8.90723V8.75586C53.8779 8.24154 53.9723 7.78418 54.1611 7.38379C54.3499 6.9834 54.6201 6.67253 54.9717 6.45117C55.3265 6.22982 55.7448 6.11914 56.2266 6.11914C56.819 6.11914 57.3105 6.29655 57.7012 6.65137C58.0951 7.00618 58.305 7.4668 58.3311 8.0332H57.4766C57.4505 7.69141 57.3203 7.41146 57.0859 7.19336C56.8548 6.97201 56.5684 6.86133 56.2266 6.86133C55.7676 6.86133 55.4111 7.02734 55.1572 7.35938C54.9066 7.68815 54.7812 8.16504 54.7812 8.79004V8.96094C54.7812 9.56966 54.9066 10.0384 55.1572 10.3672C55.4079 10.696 55.766 10.8604 56.2314 10.8604Z" fill="white"/>
<path d="M60.3281 11.5H59.4248V6.2168H60.3281V11.5ZM59.3516 4.81543C59.3516 4.66895 59.3955 4.54525 59.4834 4.44434C59.5745 4.34342 59.708 4.29297 59.8838 4.29297C60.0596 4.29297 60.193 4.34342 60.2842 4.44434C60.3753 4.54525 60.4209 4.66895 60.4209 4.81543C60.4209 4.96191 60.3753 5.08398 60.2842 5.18164C60.193 5.2793 60.0596 5.32812 59.8838 5.32812C59.708 5.32812 59.5745 5.2793 59.4834 5.18164C59.3955 5.08398 59.3516 4.96191 59.3516 4.81543Z" fill="white"/>
<path d="M66.2412 8.91699C66.2412 9.72103 66.0573 10.3688 65.6895 10.8604C65.3216 11.3519 64.8236 11.5977 64.1953 11.5977C63.554 11.5977 63.0495 11.3942 62.6816 10.9873V13.5312H61.7783V6.2168H62.6035L62.6475 6.80273C63.0153 6.34701 63.5264 6.11914 64.1807 6.11914C64.8154 6.11914 65.3167 6.3584 65.6846 6.83691C66.0557 7.31543 66.2412 7.98112 66.2412 8.83398V8.91699ZM65.3379 8.81445C65.3379 8.21875 65.2109 7.74837 64.957 7.40332C64.7031 7.05827 64.3548 6.88574 63.9121 6.88574C63.3652 6.88574 62.9551 7.12826 62.6816 7.61328V10.1377C62.9518 10.6195 63.3652 10.8604 63.9219 10.8604C64.3548 10.8604 64.6982 10.6895 64.9521 10.3477C65.2093 10.0026 65.3379 9.49154 65.3379 8.81445Z" fill="white"/>
<path d="M70.6553 11.5C70.6032 11.3958 70.5609 11.2103 70.5283 10.9434C70.1084 11.3796 69.6071 11.5977 69.0244 11.5977C68.5036 11.5977 68.0755 11.4512 67.7402 11.1582C67.4082 10.862 67.2422 10.4876 67.2422 10.0352C67.2422 9.48503 67.4505 9.05859 67.8672 8.75586C68.2871 8.44987 68.8763 8.29688 69.6348 8.29688H70.5137V7.88184C70.5137 7.56608 70.4193 7.31543 70.2305 7.12988C70.0417 6.94108 69.7633 6.84668 69.3955 6.84668C69.0732 6.84668 68.8031 6.92806 68.585 7.09082C68.3669 7.25358 68.2578 7.45052 68.2578 7.68164H67.3496C67.3496 7.41797 67.4424 7.16406 67.6279 6.91992C67.8167 6.67253 68.0706 6.47721 68.3896 6.33398C68.7119 6.19076 69.0651 6.11914 69.4492 6.11914C70.0579 6.11914 70.5348 6.27214 70.8799 6.57812C71.2249 6.88086 71.404 7.29915 71.417 7.83301V10.2646C71.417 10.7497 71.4788 11.1354 71.6025 11.4219V11.5H70.6553ZM69.1562 10.8115C69.4395 10.8115 69.708 10.7383 69.9619 10.5918C70.2158 10.4453 70.3997 10.2549 70.5137 10.0205V8.93652H69.8057C68.6989 8.93652 68.1455 9.26042 68.1455 9.9082C68.1455 10.1914 68.2399 10.4128 68.4287 10.5723C68.6175 10.7318 68.86 10.8115 69.1562 10.8115Z" fill="white"/>
<path d="M73.8145 11.5H72.9111V4H73.8145V11.5Z" fill="white"/>
<path d="M76.2461 11.5H75.3428V6.2168H76.2461V11.5ZM75.2695 4.81543C75.2695 4.66895 75.3135 4.54525 75.4014 4.44434C75.4925 4.34342 75.626 4.29297 75.8018 4.29297C75.9775 4.29297 76.111 4.34342 76.2021 4.44434C76.2933 4.54525 76.3389 4.66895 76.3389 4.81543C76.3389 4.96191 76.2933 5.08398 76.2021 5.18164C76.111 5.2793 75.9775 5.32812 75.8018 5.32812C75.626 5.32812 75.4925 5.2793 75.4014 5.18164C75.3135 5.08398 75.2695 4.96191 75.2695 4.81543Z" fill="white"/>
<path d="M77.4766 8.81445C77.4766 8.00391 77.6686 7.35286 78.0527 6.86133C78.4368 6.36654 78.9398 6.11914 79.5615 6.11914C80.18 6.11914 80.6699 6.33073 81.0312 6.75391V4H81.9346V11.5H81.1045L81.0605 10.9336C80.6992 11.3763 80.1963 11.5977 79.5518 11.5977C78.9398 11.5977 78.4401 11.347 78.0527 10.8457C77.6686 10.3444 77.4766 9.6901 77.4766 8.88281V8.81445ZM78.3799 8.91699C78.3799 9.51595 78.5036 9.9847 78.751 10.3232C78.9984 10.6618 79.3402 10.8311 79.7764 10.8311C80.3493 10.8311 80.7676 10.5739 81.0312 10.0596V7.63281C80.7611 7.13477 80.346 6.88574 79.7861 6.88574C79.3434 6.88574 78.9984 7.05664 78.751 7.39844C78.5036 7.74023 78.3799 8.24642 78.3799 8.91699Z" fill="white"/>
<path d="M86.6025 11.5C86.5505 11.3958 86.5081 11.2103 86.4756 10.9434C86.0557 11.3796 85.5544 11.5977 84.9717 11.5977C84.4508 11.5977 84.0228 11.4512 83.6875 11.1582C83.3555 10.862 83.1895 10.4876 83.1895 10.0352C83.1895 9.48503 83.3978 9.05859 83.8145 8.75586C84.2344 8.44987 84.8236 8.29688 85.582 8.29688H86.4609V7.88184C86.4609 7.56608 86.3665 7.31543 86.1777 7.12988C85.9889 6.94108 85.7106 6.84668 85.3428 6.84668C85.0205 6.84668 84.7503 6.92806 84.5322 7.09082C84.3141 7.25358 84.2051 7.45052 84.2051 7.68164H83.2969C83.2969 7.41797 83.3896 7.16406 83.5752 6.91992C83.764 6.67253 84.0179 6.47721 84.3369 6.33398C84.6592 6.19076 85.0124 6.11914 85.3965 6.11914C86.0052 6.11914 86.4821 6.27214 86.8271 6.57812C87.1722 6.88086 87.3512 7.29915 87.3643 7.83301V10.2646C87.3643 10.7497 87.4261 11.1354 87.5498 11.4219V11.5H86.6025ZM85.1035 10.8115C85.3867 10.8115 85.6553 10.7383 85.9092 10.5918C86.1631 10.4453 86.347 10.2549 86.4609 10.0205V8.93652H85.7529C84.6462 8.93652 84.0928 9.26042 84.0928 9.9082C84.0928 10.1914 84.1872 10.4128 84.376 10.5723C84.5648 10.7318 84.8073 10.8115 85.1035 10.8115Z" fill="white"/>
<path d="M88.5605 8.81445C88.5605 8.00391 88.7526 7.35286 89.1367 6.86133C89.5208 6.36654 90.0238 6.11914 90.6455 6.11914C91.264 6.11914 91.7539 6.33073 92.1152 6.75391V4H93.0186V11.5H92.1885L92.1445 10.9336C91.7832 11.3763 91.2803 11.5977 90.6357 11.5977C90.0238 11.5977 89.5241 11.347 89.1367 10.8457C88.7526 10.3444 88.5605 9.6901 88.5605 8.88281V8.81445ZM89.4639 8.91699C89.4639 9.51595 89.5876 9.9847 89.835 10.3232C90.0824 10.6618 90.4242 10.8311 90.8604 10.8311C91.4333 10.8311 91.8516 10.5739 92.1152 10.0596V7.63281C91.8451 7.13477 91.43 6.88574 90.8701 6.88574C90.4274 6.88574 90.0824 7.05664 89.835 7.39844C89.5876 7.74023 89.4639 8.24642 89.4639 8.91699Z" fill="white"/>
<path d="M31.6953 20.8145C31.6953 20.0039 31.8874 19.3529 32.2715 18.8613C32.6556 18.3665 33.1585 18.1191 33.7803 18.1191C34.3988 18.1191 34.8887 18.3307 35.25 18.7539V16H36.1533V23.5H35.3232L35.2793 22.9336C34.918 23.3763 34.415 23.5977 33.7705 23.5977C33.1585 23.5977 32.6589 23.347 32.2715 22.8457C31.8874 22.3444 31.6953 21.6901 31.6953 20.8828V20.8145ZM32.5986 20.917C32.5986 21.516 32.7223 21.9847 32.9697 22.3232C33.2171 22.6618 33.5589 22.8311 33.9951 22.8311C34.568 22.8311 34.9863 22.5739 35.25 22.0596V19.6328C34.9798 19.1348 34.5648 18.8857 34.0049 18.8857C33.5622 18.8857 33.2171 19.0566 32.9697 19.3984C32.7223 19.7402 32.5986 20.2464 32.5986 20.917Z" fill="white"/>
<path d="M39.752 23.5977C39.0358 23.5977 38.4531 23.3633 38.0039 22.8945C37.5547 22.4225 37.3301 21.7926 37.3301 21.0049V20.8389C37.3301 20.3148 37.4294 19.8477 37.6279 19.4375C37.8298 19.0241 38.1097 18.7018 38.4678 18.4707C38.8291 18.2363 39.2197 18.1191 39.6396 18.1191C40.3265 18.1191 40.8604 18.3454 41.2412 18.7979C41.6221 19.2503 41.8125 19.8981 41.8125 20.7412V21.1172H38.2334C38.2464 21.638 38.3978 22.0596 38.6875 22.3818C38.9805 22.7008 39.3516 22.8604 39.8008 22.8604C40.1198 22.8604 40.39 22.7952 40.6113 22.665C40.8327 22.5348 41.0264 22.3623 41.1924 22.1475L41.7441 22.5771C41.3014 23.2575 40.6374 23.5977 39.752 23.5977ZM39.6396 18.8613C39.2751 18.8613 38.9691 18.9948 38.7217 19.2617C38.4743 19.5254 38.3213 19.8965 38.2627 20.375H40.9092V20.3066C40.8831 19.8477 40.7594 19.4928 40.5381 19.2422C40.3167 18.9883 40.0173 18.8613 39.6396 18.8613Z" fill="white"/>
<path d="M46.4268 22.7334H49.7959V23.5H45.4844V16.3906H46.4268V22.7334Z" fill="white"/>
<path d="M53.9854 23.5C53.9333 23.3958 53.891 23.2103 53.8584 22.9434C53.4385 23.3796 52.9372 23.5977 52.3545 23.5977C51.8337 23.5977 51.4056 23.4512 51.0703 23.1582C50.7383 22.862 50.5723 22.4876 50.5723 22.0352C50.5723 21.485 50.7806 21.0586 51.1973 20.7559C51.6172 20.4499 52.2064 20.2969 52.9648 20.2969H53.8438V19.8818C53.8438 19.5661 53.7493 19.3154 53.5605 19.1299C53.3717 18.9411 53.0934 18.8467 52.7256 18.8467C52.4033 18.8467 52.1331 18.9281 51.915 19.0908C51.6969 19.2536 51.5879 19.4505 51.5879 19.6816H50.6797C50.6797 19.418 50.7725 19.1641 50.958 18.9199C51.1468 18.6725 51.4007 18.4772 51.7197 18.334C52.042 18.1908 52.3952 18.1191 52.7793 18.1191C53.388 18.1191 53.8649 18.2721 54.21 18.5781C54.555 18.8809 54.734 19.2992 54.7471 19.833V22.2646C54.7471 22.7497 54.8089 23.1354 54.9326 23.4219V23.5H53.9854ZM52.4863 22.8115C52.7695 22.8115 53.0381 22.7383 53.292 22.5918C53.5459 22.4453 53.7298 22.2549 53.8438 22.0205V20.9365H53.1357C52.029 20.9365 51.4756 21.2604 51.4756 21.9082C51.4756 22.1914 51.57 22.4128 51.7588 22.5723C51.9476 22.7318 52.1901 22.8115 52.4863 22.8115Z" fill="white"/>
<path d="M59.9961 16.3906L62.3203 22.1914L64.6445 16.3906H65.8604V23.5H64.9229V20.7314L65.0107 17.7432L62.6768 23.5H61.959L59.6299 17.7578L59.7227 20.7314V23.5H58.7852V16.3906H59.9961Z" fill="white"/>
<path d="M67.1348 20.8096C67.1348 20.292 67.2357 19.8265 67.4375 19.4131C67.6426 18.9997 67.9258 18.6807 68.2871 18.4561C68.6517 18.2314 69.0667 18.1191 69.5322 18.1191C70.2516 18.1191 70.8327 18.3682 71.2754 18.8662C71.7214 19.3643 71.9443 20.0267 71.9443 20.8535V20.917C71.9443 21.4313 71.8451 21.8936 71.6465 22.3037C71.4512 22.7106 71.1696 23.028 70.8018 23.2559C70.4372 23.4837 70.0173 23.5977 69.542 23.5977C68.8258 23.5977 68.2448 23.3486 67.7988 22.8506C67.3561 22.3525 67.1348 21.6934 67.1348 20.873V20.8096ZM68.043 20.917C68.043 21.5029 68.1781 21.9733 68.4482 22.3281C68.7217 22.6829 69.0863 22.8604 69.542 22.8604C70.001 22.8604 70.3656 22.6813 70.6357 22.3232C70.9059 21.9619 71.041 21.4574 71.041 20.8096C71.041 20.2301 70.9027 19.7614 70.626 19.4033C70.3525 19.042 69.988 18.8613 69.5322 18.8613C69.0863 18.8613 68.7266 19.0387 68.4531 19.3936C68.1797 19.7484 68.043 20.2562 68.043 20.917Z" fill="white"/>
<path d="M74.0586 23.5H73.1553V16H74.0586V23.5Z" fill="white"/>
<path d="M76.4902 23.5H75.5869V18.2168H76.4902V23.5ZM75.5137 16.8154C75.5137 16.6689 75.5576 16.5452 75.6455 16.4443C75.7367 16.3434 75.8701 16.293 76.0459 16.293C76.2217 16.293 76.3551 16.3434 76.4463 16.4443C76.5374 16.5452 76.583 16.6689 76.583 16.8154C76.583 16.9619 76.5374 17.084 76.4463 17.1816C76.3551 17.2793 76.2217 17.3281 76.0459 17.3281C75.8701 17.3281 75.7367 17.2793 75.6455 17.1816C75.5576 17.084 75.5137 16.9619 75.5137 16.8154Z" fill="white"/>
<path d="M78.7949 18.2168L78.8242 18.8809C79.2279 18.373 79.7552 18.1191 80.4062 18.1191C81.5228 18.1191 82.0859 18.749 82.0957 20.0088V23.5H81.1924V20.0039C81.1891 19.623 81.1012 19.3415 80.9287 19.1592C80.7594 18.9769 80.4941 18.8857 80.1328 18.8857C79.8398 18.8857 79.5827 18.9639 79.3613 19.1201C79.14 19.2764 78.9674 19.4814 78.8438 19.7354V23.5H77.9404V18.2168H78.7949Z" fill="white"/>
<path d="M86.7197 23.5C86.6676 23.3958 86.6253 23.2103 86.5928 22.9434C86.1729 23.3796 85.6716 23.5977 85.0889 23.5977C84.568 23.5977 84.14 23.4512 83.8047 23.1582C83.4727 22.862 83.3066 22.4876 83.3066 22.0352C83.3066 21.485 83.515 21.0586 83.9316 20.7559C84.3516 20.4499 84.9408 20.2969 85.6992 20.2969H86.5781V19.8818C86.5781 19.5661 86.4837 19.3154 86.2949 19.1299C86.1061 18.9411 85.8278 18.8467 85.46 18.8467C85.1377 18.8467 84.8675 18.9281 84.6494 19.0908C84.4313 19.2536 84.3223 19.4505 84.3223 19.6816H83.4141C83.4141 19.418 83.5068 19.1641 83.6924 18.9199C83.8812 18.6725 84.1351 18.4772 84.4541 18.334C84.7764 18.1908 85.1296 18.1191 85.5137 18.1191C86.1224 18.1191 86.5993 18.2721 86.9443 18.5781C87.2894 18.8809 87.4684 19.2992 87.4814 19.833V22.2646C87.4814 22.7497 87.5433 23.1354 87.667 23.4219V23.5H86.7197ZM85.2207 22.8115C85.5039 22.8115 85.7725 22.7383 86.0264 22.5918C86.2803 22.4453 86.4642 22.2549 86.5781 22.0205V20.9365H85.8701C84.7633 20.9365 84.21 21.2604 84.21 21.9082C84.21 22.1914 84.3044 22.4128 84.4932 22.5723C84.682 22.7318 84.9245 22.8115 85.2207 22.8115Z" fill="white"/>
<line x1="99.4805" y1="4" x2="99.4805" y2="24" stroke="white" stroke-width="0.5"/>
<path d="M106.188 8.96094V11.6025H104.953V4.49316H107.673C108.467 4.49316 109.097 4.69987 109.562 5.11328C110.031 5.52669 110.266 6.07357 110.266 6.75391C110.266 7.45052 110.036 7.99251 109.577 8.37988C109.121 8.76725 108.482 8.96094 107.658 8.96094H106.188ZM106.188 7.96973H107.673C108.112 7.96973 108.448 7.86719 108.679 7.66211C108.91 7.45378 109.025 7.1543 109.025 6.76367C109.025 6.37956 108.908 6.07357 108.674 5.8457C108.439 5.61458 108.117 5.49577 107.707 5.48926H106.188V7.96973Z" fill="white"/>
<path d="M112.497 11.6025H111.311V4.10254H112.497V11.6025Z" fill="white"/>
<path d="M116.95 11.6025C116.898 11.5016 116.853 11.3372 116.813 11.1094C116.436 11.5033 115.974 11.7002 115.427 11.7002C114.896 11.7002 114.463 11.5488 114.128 11.2461C113.793 10.9434 113.625 10.569 113.625 10.123C113.625 9.5599 113.833 9.12858 114.25 8.8291C114.67 8.52637 115.269 8.375 116.047 8.375H116.774V8.02832C116.774 7.75488 116.698 7.53678 116.545 7.37402C116.392 7.20801 116.159 7.125 115.847 7.125C115.576 7.125 115.355 7.19336 115.183 7.33008C115.01 7.46354 114.924 7.63444 114.924 7.84277H113.737C113.737 7.55306 113.833 7.28288 114.025 7.03223C114.217 6.77832 114.478 6.57975 114.807 6.43652C115.139 6.29329 115.508 6.22168 115.915 6.22168C116.534 6.22168 117.027 6.37793 117.395 6.69043C117.762 6.99967 117.951 7.43587 117.961 7.99902V10.3818C117.961 10.8571 118.028 11.2363 118.161 11.5195V11.6025H116.95ZM115.646 10.748C115.881 10.748 116.101 10.6911 116.306 10.5771C116.514 10.4632 116.67 10.3102 116.774 10.1182V9.12207H116.135C115.695 9.12207 115.365 9.19857 115.144 9.35156C114.922 9.50456 114.812 9.72103 114.812 10.001C114.812 10.2288 114.886 10.4111 115.036 10.5479C115.189 10.6813 115.393 10.748 115.646 10.748Z" fill="white"/>
<path d="M120.69 5.03516V6.31934H121.623V7.19824H120.69V10.1475C120.69 10.3493 120.729 10.4958 120.808 10.5869C120.889 10.6748 121.032 10.7188 121.237 10.7188C121.374 10.7188 121.512 10.7025 121.652 10.6699V11.5879C121.382 11.6628 121.122 11.7002 120.871 11.7002C119.96 11.7002 119.504 11.1973 119.504 10.1914V7.19824H118.635V6.31934H119.504V5.03516H120.69Z" fill="white"/>
<path d="M125.69 11.6025C125.638 11.5016 125.593 11.3372 125.554 11.1094C125.176 11.5033 124.714 11.7002 124.167 11.7002C123.636 11.7002 123.203 11.5488 122.868 11.2461C122.533 10.9434 122.365 10.569 122.365 10.123C122.365 9.5599 122.574 9.12858 122.99 8.8291C123.41 8.52637 124.009 8.375 124.787 8.375H125.515V8.02832C125.515 7.75488 125.438 7.53678 125.285 7.37402C125.132 7.20801 124.899 7.125 124.587 7.125C124.317 7.125 124.095 7.19336 123.923 7.33008C123.75 7.46354 123.664 7.63444 123.664 7.84277H122.478C122.478 7.55306 122.574 7.28288 122.766 7.03223C122.958 6.77832 123.218 6.57975 123.547 6.43652C123.879 6.29329 124.248 6.22168 124.655 6.22168C125.274 6.22168 125.767 6.37793 126.135 6.69043C126.503 6.99967 126.691 7.43587 126.701 7.99902V10.3818C126.701 10.8571 126.768 11.2363 126.901 11.5195V11.6025H125.69ZM124.387 10.748C124.621 10.748 124.841 10.6911 125.046 10.5771C125.254 10.4632 125.41 10.3102 125.515 10.1182V9.12207H124.875C124.436 9.12207 124.105 9.19857 123.884 9.35156C123.662 9.50456 123.552 9.72103 123.552 10.001C123.552 10.2288 123.627 10.4111 123.776 10.5479C123.929 10.6813 124.133 10.748 124.387 10.748Z" fill="white"/>
<path d="M128.361 11.6025V7.19824H127.556V6.31934H128.361V5.83594C128.361 5.25 128.524 4.79753 128.85 4.47852C129.175 4.15951 129.631 4 130.217 4C130.425 4 130.646 4.0293 130.881 4.08789L130.852 5.01562C130.721 4.98958 130.57 4.97656 130.397 4.97656C129.831 4.97656 129.548 5.2679 129.548 5.85059V6.31934H130.622V7.19824H129.548V11.6025H128.361Z" fill="white"/>
<path d="M131.267 8.91211C131.267 8.39453 131.369 7.92904 131.574 7.51562C131.779 7.09896 132.067 6.77995 132.438 6.55859C132.81 6.33398 133.236 6.22168 133.718 6.22168C134.431 6.22168 135.008 6.45117 135.451 6.91016C135.897 7.36914 136.138 7.97786 136.174 8.73633L136.179 9.01465C136.179 9.53548 136.078 10.001 135.876 10.4111C135.677 10.8213 135.391 11.1387 135.017 11.3633C134.646 11.5879 134.216 11.7002 133.728 11.7002C132.982 11.7002 132.385 11.4528 131.936 10.958C131.49 10.46 131.267 9.79753 131.267 8.9707V8.91211ZM132.453 9.01465C132.453 9.55827 132.565 9.9847 132.79 10.2939C133.015 10.5999 133.327 10.7529 133.728 10.7529C134.128 10.7529 134.439 10.5967 134.66 10.2842C134.885 9.97168 134.997 9.51432 134.997 8.91211C134.997 8.37826 134.882 7.95508 134.65 7.64258C134.423 7.33008 134.112 7.17383 133.718 7.17383C133.33 7.17383 133.023 7.32845 132.795 7.6377C132.567 7.94368 132.453 8.40267 132.453 9.01465Z" fill="white"/>
<path d="M139.948 7.40332C139.792 7.37728 139.631 7.36426 139.465 7.36426C138.921 7.36426 138.555 7.57259 138.366 7.98926V11.6025H137.18V6.31934H138.312L138.342 6.91016C138.628 6.45117 139.025 6.22168 139.533 6.22168C139.702 6.22168 139.842 6.24447 139.953 6.29004L139.948 7.40332Z" fill="white"/>
<path d="M141.813 6.31934L141.848 6.87109C142.219 6.43815 142.727 6.22168 143.371 6.22168C144.077 6.22168 144.561 6.49186 144.821 7.03223C145.205 6.49186 145.746 6.22168 146.442 6.22168C147.025 6.22168 147.458 6.38281 147.741 6.70508C148.028 7.02734 148.174 7.5026 148.181 8.13086V11.6025H146.994V8.16504C146.994 7.82975 146.921 7.58398 146.774 7.42773C146.628 7.27148 146.385 7.19336 146.047 7.19336C145.777 7.19336 145.555 7.2666 145.383 7.41309C145.214 7.55632 145.095 7.74512 145.026 7.97949L145.031 11.6025H143.845V8.12598C143.828 7.50423 143.511 7.19336 142.893 7.19336C142.417 7.19336 142.08 7.38704 141.882 7.77441V11.6025H140.695V6.31934H141.813Z" fill="white"/>
<path d="M152.556 11.6025C152.504 11.5016 152.458 11.3372 152.419 11.1094C152.041 11.5033 151.579 11.7002 151.032 11.7002C150.502 11.7002 150.069 11.5488 149.733 11.2461C149.398 10.9434 149.23 10.569 149.23 10.123C149.23 9.5599 149.439 9.12858 149.855 8.8291C150.275 8.52637 150.874 8.375 151.652 8.375H152.38V8.02832C152.38 7.75488 152.303 7.53678 152.15 7.37402C151.997 7.20801 151.765 7.125 151.452 7.125C151.182 7.125 150.961 7.19336 150.788 7.33008C150.616 7.46354 150.529 7.63444 150.529 7.84277H149.343C149.343 7.55306 149.439 7.28288 149.631 7.03223C149.823 6.77832 150.083 6.57975 150.412 6.43652C150.744 6.29329 151.114 6.22168 151.521 6.22168C152.139 6.22168 152.632 6.37793 153 6.69043C153.368 6.99967 153.557 7.43587 153.566 7.99902V10.3818C153.566 10.8571 153.633 11.2363 153.767 11.5195V11.6025H152.556ZM151.252 10.748C151.486 10.748 151.706 10.6911 151.911 10.5771C152.119 10.4632 152.276 10.3102 152.38 10.1182V9.12207H151.74C151.301 9.12207 150.97 9.19857 150.749 9.35156C150.528 9.50456 150.417 9.72103 150.417 10.001C150.417 10.2288 150.492 10.4111 150.642 10.5479C150.795 10.6813 150.998 10.748 151.252 10.748Z" fill="white"/>
<path d="M106.257 23.6025H105.026V16.4932H106.257V23.6025Z" fill="white"/>
<path d="M108.762 18.3193L108.796 18.9297C109.187 18.4577 109.699 18.2217 110.334 18.2217C111.434 18.2217 111.994 18.8516 112.014 20.1113V23.6025H110.827V20.1797C110.827 19.8444 110.754 19.597 110.607 19.4375C110.464 19.2747 110.228 19.1934 109.899 19.1934C109.421 19.1934 109.064 19.4098 108.83 19.8428V23.6025H107.644V18.3193H108.762Z" fill="white"/>
<path d="M116.188 22.167C116.188 21.9554 116.101 21.7943 115.925 21.6836C115.752 21.5729 115.464 21.4753 115.061 21.3906C114.657 21.306 114.32 21.1986 114.05 21.0684C113.457 20.7819 113.161 20.3669 113.161 19.8232C113.161 19.3675 113.353 18.9867 113.737 18.6807C114.121 18.3747 114.61 18.2217 115.202 18.2217C115.834 18.2217 116.343 18.3779 116.73 18.6904C117.121 19.0029 117.316 19.4082 117.316 19.9062H116.13C116.13 19.6784 116.045 19.4896 115.876 19.3398C115.707 19.1868 115.482 19.1104 115.202 19.1104C114.942 19.1104 114.729 19.1706 114.562 19.291C114.4 19.4115 114.318 19.5726 114.318 19.7744C114.318 19.9567 114.395 20.0983 114.548 20.1992C114.701 20.3001 115.01 20.4027 115.476 20.5068C115.941 20.6077 116.306 20.7298 116.569 20.873C116.836 21.013 117.033 21.1823 117.16 21.3809C117.29 21.5794 117.355 21.8203 117.355 22.1035C117.355 22.5788 117.159 22.9645 116.765 23.2607C116.371 23.5537 115.855 23.7002 115.217 23.7002C114.784 23.7002 114.398 23.6221 114.06 23.4658C113.721 23.3096 113.457 23.0947 113.269 22.8213C113.08 22.5479 112.985 22.2533 112.985 21.9375H114.138C114.154 22.2174 114.26 22.4339 114.455 22.5869C114.65 22.7367 114.909 22.8115 115.231 22.8115C115.544 22.8115 115.782 22.7529 115.944 22.6357C116.107 22.5153 116.188 22.359 116.188 22.167Z" fill="white"/>
<path d="M119.88 17.0352V18.3193H120.812V19.1982H119.88V22.1475C119.88 22.3493 119.919 22.4958 119.997 22.5869C120.078 22.6748 120.222 22.7188 120.427 22.7188C120.563 22.7188 120.702 22.7025 120.842 22.6699V23.5879C120.572 23.6628 120.311 23.7002 120.061 23.7002C119.149 23.7002 118.693 23.1973 118.693 22.1914V19.1982H117.824V18.3193H118.693V17.0352H119.88Z" fill="white"/>
<path d="M122.985 23.6025H121.799V18.3193H122.985V23.6025ZM121.726 16.9473C121.726 16.765 121.783 16.6136 121.896 16.4932C122.014 16.3727 122.18 16.3125 122.395 16.3125C122.609 16.3125 122.775 16.3727 122.893 16.4932C123.01 16.6136 123.068 16.765 123.068 16.9473C123.068 17.1263 123.01 17.276 122.893 17.3965C122.775 17.5137 122.609 17.5723 122.395 17.5723C122.18 17.5723 122.014 17.5137 121.896 17.3965C121.783 17.276 121.726 17.1263 121.726 16.9473Z" fill="white"/>
<path d="M125.769 17.0352V18.3193H126.701V19.1982H125.769V22.1475C125.769 22.3493 125.808 22.4958 125.886 22.5869C125.967 22.6748 126.11 22.7188 126.315 22.7188C126.452 22.7188 126.59 22.7025 126.73 22.6699V23.5879C126.46 23.6628 126.2 23.7002 125.949 23.7002C125.038 23.7002 124.582 23.1973 124.582 22.1914V19.1982H123.713V18.3193H124.582V17.0352H125.769Z" fill="white"/>
<path d="M130.812 23.085C130.464 23.4951 129.969 23.7002 129.328 23.7002C128.755 23.7002 128.321 23.5326 128.024 23.1973C127.731 22.862 127.585 22.377 127.585 21.7422V18.3193H128.771V21.7275C128.771 22.3981 129.05 22.7334 129.606 22.7334C130.183 22.7334 130.572 22.5267 130.773 22.1133V18.3193H131.96V23.6025H130.842L130.812 23.085Z" fill="white"/>
<path d="M135.339 22.7529C135.635 22.7529 135.881 22.6667 136.076 22.4941C136.271 22.3216 136.376 22.1084 136.389 21.8545H137.507C137.494 22.1833 137.391 22.4909 137.199 22.7773C137.007 23.0605 136.747 23.2852 136.418 23.4512C136.089 23.6172 135.734 23.7002 135.354 23.7002C134.615 23.7002 134.029 23.4609 133.596 22.9824C133.163 22.5039 132.946 21.8431 132.946 21V20.8779C132.946 20.0739 133.161 19.431 133.591 18.9492C134.021 18.4642 134.606 18.2217 135.349 18.2217C135.977 18.2217 136.488 18.4056 136.882 18.7734C137.279 19.138 137.487 19.6182 137.507 20.2139H136.389C136.376 19.9111 136.271 19.6621 136.076 19.4668C135.884 19.2715 135.638 19.1738 135.339 19.1738C134.955 19.1738 134.659 19.3138 134.45 19.5938C134.242 19.8704 134.136 20.292 134.133 20.8584V21.0488C134.133 21.6217 134.235 22.0498 134.44 22.333C134.649 22.613 134.948 22.7529 135.339 22.7529Z" fill="white"/>
<path d="M139.665 23.6025H138.479V18.3193H139.665V23.6025ZM138.405 16.9473C138.405 16.765 138.462 16.6136 138.576 16.4932C138.693 16.3727 138.859 16.3125 139.074 16.3125C139.289 16.3125 139.455 16.3727 139.572 16.4932C139.689 16.6136 139.748 16.765 139.748 16.9473C139.748 17.1263 139.689 17.276 139.572 17.3965C139.455 17.5137 139.289 17.5723 139.074 17.5723C138.859 17.5723 138.693 17.5137 138.576 17.3965C138.462 17.276 138.405 17.1263 138.405 16.9473Z" fill="white"/>
<path d="M140.739 20.9121C140.739 20.3945 140.842 19.929 141.047 19.5156C141.252 19.099 141.54 18.7799 141.911 18.5586C142.282 18.334 142.709 18.2217 143.19 18.2217C143.903 18.2217 144.481 18.4512 144.924 18.9102C145.37 19.3691 145.611 19.9779 145.646 20.7363L145.651 21.0146C145.651 21.5355 145.55 22.001 145.349 22.4111C145.15 22.8213 144.864 23.1387 144.489 23.3633C144.118 23.5879 143.688 23.7002 143.2 23.7002C142.455 23.7002 141.857 23.4528 141.408 22.958C140.962 22.46 140.739 21.7975 140.739 20.9707V20.9121ZM141.926 21.0146C141.926 21.5583 142.038 21.9847 142.263 22.2939C142.487 22.5999 142.8 22.7529 143.2 22.7529C143.601 22.7529 143.911 22.5967 144.133 22.2842C144.357 21.9717 144.47 21.5143 144.47 20.9121C144.47 20.3783 144.354 19.9551 144.123 19.6426C143.895 19.3301 143.584 19.1738 143.19 19.1738C142.803 19.1738 142.495 19.3285 142.268 19.6377C142.04 19.9437 141.926 20.4027 141.926 21.0146Z" fill="white"/>
<path d="M147.756 18.3193L147.79 18.9297C148.181 18.4577 148.693 18.2217 149.328 18.2217C150.428 18.2217 150.988 18.8516 151.008 20.1113V23.6025H149.821V20.1797C149.821 19.8444 149.748 19.597 149.602 19.4375C149.458 19.2747 149.222 19.1934 148.894 19.1934C148.415 19.1934 148.059 19.4098 147.824 19.8428V23.6025H146.638V18.3193H147.756Z" fill="white"/>
<path d="M155.378 23.6025C155.326 23.5016 155.28 23.3372 155.241 23.1094C154.864 23.5033 154.401 23.7002 153.854 23.7002C153.324 23.7002 152.891 23.5488 152.556 23.2461C152.22 22.9434 152.053 22.569 152.053 22.123C152.053 21.5599 152.261 21.1286 152.678 20.8291C153.098 20.5264 153.697 20.375 154.475 20.375H155.202V20.0283C155.202 19.7549 155.126 19.5368 154.973 19.374C154.82 19.208 154.587 19.125 154.274 19.125C154.004 19.125 153.783 19.1934 153.61 19.3301C153.438 19.4635 153.352 19.6344 153.352 19.8428H152.165C152.165 19.5531 152.261 19.2829 152.453 19.0322C152.645 18.7783 152.906 18.5798 153.234 18.4365C153.566 18.2933 153.936 18.2217 154.343 18.2217C154.961 18.2217 155.454 18.3779 155.822 18.6904C156.19 18.9997 156.379 19.4359 156.389 19.999V22.3818C156.389 22.8571 156.455 23.2363 156.589 23.5195V23.6025H155.378ZM154.074 22.748C154.309 22.748 154.528 22.6911 154.733 22.5771C154.942 22.4632 155.098 22.3102 155.202 22.1182V21.1221H154.562C154.123 21.1221 153.793 21.1986 153.571 21.3516C153.35 21.5046 153.239 21.721 153.239 22.001C153.239 22.2288 153.314 22.4111 153.464 22.5479C153.617 22.6813 153.82 22.748 154.074 22.748Z" fill="white"/>
<path d="M158.894 23.6025H157.707V16.1025H158.894V23.6025Z" fill="white"/>
<path d="M12.579 14.0579C14.3852 14.0579 15.8494 12.6776 15.8494 10.975C15.8494 9.27235 14.3852 7.89209 12.579 7.89209C10.7728 7.89209 9.30859 9.27235 9.30859 10.975C9.30859 12.6776 10.7728 14.0579 12.579 14.0579Z" fill="#D47C2A"/>
<path d="M12.9434 18.5624L25.4809 13.7563L24.9017 5.15649L15.473 12.3724L9.77539 17.1758L12.9434 18.5624Z" fill="#467646"/>
<path d="M19.4242 22.4503L10.6637 17.935L0.806641 16.9038L0.884764 18.5839L6.38034 19.5155L12.245 23.2042L17.4469 23.4708L20.2567 24.2785L19.4242 22.4503Z" fill="#B7C64F"/>
<path d="M24.8025 16.4355L13.375 18.5438L16.8986 20.5631L24.7056 18.2126L24.8025 16.4355Z" fill="#B7C64F"/>
<path d="M20.6998 24.5399L24.7622 18.918L20.9396 18.9503L17.3594 20.8485L20.6998 24.5399Z" fill="#F2E935"/>
<path d="M6.75763 25.2269L3.42796 23.5387L1.23242 19.053L7.71127 19.8311L12.0646 23.6356L6.75763 25.2269Z" fill="#F2E935"/>
<path d="M19.418 25.641L14.4963 27.4288L6.82401 26.3652L6.3418 25.0163L14.4909 23.3335L18.4536 23.6162L19.7575 24.6824L19.418 25.641Z" fill="#B1D5E4"/>
<path d="M25.0207 16.4949L14.8809 17.7362L14.9051 15.6279L16.9471 15.6118L16.9309 13.9155H25.0207V16.4949Z" fill="#FBFBFB"/>
<path d="M10.2949 16.8421L8.77556 17.8168L7.46094 16.8421V13.8723H10.2949V16.8421Z" fill="#FBFBFB"/>
<path d="M0.681975 17.1302L0.574219 14.847L2.82633 12.5557L7.31977 14.847L7.32515 17.2756L0.681975 17.1302Z" fill="#FBFBFB"/>
<path d="M0.356271 5.83795L0.0976562 5.33176L0.574478 5.32369C1.64665 5.30484 2.54103 5.5714 3.23337 6.11259C3.84219 6.58916 4.29477 7.27843 4.58301 8.16426H4.58571C5.52858 8.16426 6.32597 8.3635 6.96173 8.7593C7.64329 9.18202 8.14705 9.83091 8.46224 10.6898C9.00102 10.6844 9.52903 10.7706 10.0382 10.9483C10.647 11.161 11.1966 11.4976 11.6734 11.9445C12.2256 12.4615 12.6432 13.105 12.9072 13.8185C12.9449 13.7512 12.6432 13.7754 12.126 13.8346C11.9347 13.8562 12.9611 14.9601 11.6033 15.2886C10.6712 15.5147 11.1077 13.9558 10.9164 13.9773C8.61041 14.2358 4.95747 14.5158 3.62668 13.1831C2.84814 12.4022 1.45808 15.2778 0.787297 14.3543C-0.0774478 13.1615 0.27276 13.1104 0.356271 5.83795Z" fill="#467646"/>
<path d="M4.2893 8.46307L2.95312 6.72103C3.48921 5.59826 4.1573 4.58319 4.93853 3.70813C5.68205 2.87346 6.52794 2.15996 7.45464 1.58915C9.22185 0.501384 11.245 -0.0478834 13.3031 0.00327382C15.2831 0.0517386 17.1931 0.654855 18.8256 1.74531C20.547 2.90039 21.9021 4.56704 22.7399 6.57294L21.5492 8.75385C18.2168 8.07265 17.1231 11.6725 16.5439 11.6725C15.7519 11.6725 15.6441 7.86264 12.7401 7.88418C10.8705 7.89764 9.64479 8.92079 8.37865 11.0667C7.87489 11.9229 7.86412 10.1997 6.38786 8.92079C6.06459 8.64077 5.74132 8.62461 4.2893 8.46307Z" fill="#F2E935"/>
<path d="M3.82326 7.13836L2.95312 6.72103C3.48921 5.59826 4.1573 4.58319 4.93853 3.70814C5.68205 2.87346 6.52794 2.15996 7.45464 1.58915C9.22185 0.501384 11.245 -0.0478834 13.3031 0.00327382C15.2831 0.0517386 17.1931 0.654855 18.8256 1.74531C20.547 2.90039 21.9021 4.56704 22.7399 6.57294L21.8509 6.9445C21.0831 5.11361 19.852 3.59505 18.2868 2.55037C16.8079 1.56222 15.0757 1.01565 13.2762 0.972569C11.4066 0.926797 9.56666 1.42491 7.9584 2.41574C7.11252 2.93539 6.33937 3.58697 5.65781 4.35433C4.93853 5.15939 4.32163 6.09637 3.82326 7.13836Z" fill="black"/>
<path d="M16.504 12.149L15.5477 12.0305C15.7335 10.5416 15.3079 9.35422 14.3462 8.68918C13.4276 8.05375 12.1183 7.98644 11.0866 8.52763C10.4912 8.83996 9.49176 9.62347 9.49176 11.3655H8.52734C8.52734 9.7204 9.2978 8.37685 10.6394 7.67411C11.2967 7.32947 12.0429 7.16792 12.7972 7.20293C13.5676 7.23793 14.2923 7.48025 14.8957 7.89759C15.4884 8.30954 15.949 8.88842 16.2265 9.57231C16.5309 10.3181 16.6252 11.1878 16.504 12.149Z" fill="black"/>
<path d="M7.80036 13.3879H6.83594V17.3971H7.80036V13.3879Z" fill="black"/>
<path d="M11.1558 13.3879H10.1914V15.787H11.1558V13.3879Z" fill="black"/>
<path d="M10.7974 13.3904H7.32227V14.3543H10.7974V13.3904Z" fill="black"/>
<path d="M13.0145 19.3598L12.6777 18.4551C12.7612 18.4228 13.0791 18.2962 13.4159 18.1643C13.7768 18.0216 14.0813 17.9004 14.3102 17.8116L14.3022 15.278H16.3899L16.3657 12.949H22.233V13.7217H25.7243V15.9969C25.7243 16.5542 25.2691 17.0092 24.7087 17.0119C21.2928 17.0254 18.0629 17.5397 15.1103 18.5413C15.0807 18.552 15.0511 18.5601 15.0214 18.5709C14.8975 18.614 14.2483 18.8724 13.7742 19.0609C13.4024 19.209 13.1088 19.3248 13.0145 19.3598ZM15.2693 16.2446L15.2747 17.475C18.1949 16.5407 21.3656 16.0642 24.7033 16.0507C24.7357 16.0507 24.7572 16.0292 24.7572 15.9996V14.6883H21.2659V13.9156H17.3382L17.3624 16.2446H15.2693Z" fill="black"/>
<path d="M20.0468 14.6555H18.6621V16.8876H20.0468V14.6555Z" fill="black"/>
<path d="M12.8792 27.9999C12.3647 27.9999 11.0393 27.9568 9.42291 27.5637C7.76077 27.1598 6.30067 26.5217 5.08842 25.6628C3.58791 24.5993 2.31639 23.0134 1.41662 21.0748C0.44951 18.9962 -0.0380865 16.5945 0.00232209 14.1309C0.107384 7.78738 0.101997 5.82725 0.101997 5.80841L0.0993026 5.33184L0.576124 5.32376C1.6483 5.30491 2.54267 5.57147 3.23501 6.11266C3.84383 6.58923 4.29641 7.2785 4.58465 8.16433H4.58735C5.53022 8.16433 6.32761 8.36358 6.96337 8.75937C7.64493 9.18209 8.14869 9.83098 8.46388 10.6899C9.00266 10.6845 9.53066 10.7707 10.0398 10.9484C10.6486 11.1611 11.1982 11.4976 11.675 11.9446C12.2273 12.4615 12.6448 13.105 12.9088 13.8186C13.189 13.307 13.55 12.8519 13.9783 12.4723C14.7299 11.81 15.6512 11.4195 16.551 11.3765C16.9147 10.391 17.4912 9.63174 18.2643 9.12016C19.0348 8.60859 20.01 8.34204 21.1683 8.3205C21.3165 7.36197 21.699 6.58923 22.3106 6.02111C22.9948 5.38299 23.9646 5.00066 25.1984 4.88758L25.7156 4.83911L25.7237 5.35876C25.7237 5.40992 25.8019 10.4314 25.7641 15.391C25.7534 16.7991 25.4463 18.2988 24.8751 19.7313C24.2879 21.2067 23.4177 22.6095 22.359 23.7861C21.2034 25.0731 19.8456 26.0882 18.3236 26.8044C16.6534 27.5906 14.8269 27.9891 12.8954 27.9945C12.8927 27.9999 12.8846 27.9999 12.8792 27.9999ZM1.06372 6.30382C1.05833 7.22196 1.03948 9.52404 0.964046 14.1443C0.926331 16.4653 1.3843 18.7189 2.28945 20.6655C3.12186 22.4534 4.28024 23.9073 5.64605 24.8712C8.54469 26.9202 12.1491 27.0306 12.8819 27.0306C12.8873 27.0306 12.8927 27.0306 12.8954 27.0306C14.6841 27.0279 16.3732 26.659 17.9141 25.932C19.3176 25.2724 20.573 24.3327 21.6425 23.1426C23.5982 20.9644 24.7782 18.0646 24.7997 15.3829C24.8294 11.3845 24.7862 7.34312 24.7674 5.91341C24.0023 6.04804 23.4016 6.31998 22.9706 6.72116C22.4426 7.21388 22.1516 7.90585 22.0816 8.84015L22.0465 9.30056L21.5832 9.29248C20.4356 9.2521 19.4981 9.4648 18.8004 9.92791C18.1215 10.3776 17.6528 11.0561 17.3618 12.0038L17.2514 12.3673L16.8716 12.3458C16.1065 12.3 15.2875 12.6123 14.6195 13.1993C13.8732 13.8589 13.3803 14.8202 13.2321 15.9025L12.2704 15.8218C12.3108 14.594 11.8528 13.4362 11.0123 12.65C10.2338 11.9204 9.22356 11.573 8.16485 11.6726L7.76616 11.7103L7.65571 11.3253C7.20313 9.73405 6.12287 9.03939 4.25061 9.1417L3.85461 9.16324L3.75493 8.78091C3.53403 7.92201 3.15688 7.2812 2.63696 6.87463C2.22749 6.54884 1.69679 6.35767 1.06372 6.30382Z" fill="black"/>
<path d="M20.4164 24.9385C18.4526 22.3914 15.8233 20.4716 12.596 19.2358C9.24482 17.9461 5.24976 17.3968 0.726696 17.5961L0.683594 16.6322C5.34136 16.4248 9.46572 16.9983 12.9436 18.3338C16.3379 19.637 19.1072 21.6617 21.1815 24.3488L20.4164 24.9385Z" fill="black"/>
<path d="M6.73729 25.4067C6.00993 25.4067 5.25564 25.3205 4.46094 25.1105L4.68453 24.1789C7.06325 24.8089 9.16719 24.1735 11.1795 23.5596C12.5723 23.1342 14.0135 22.6926 15.514 22.6926C15.514 22.6926 15.5167 22.6926 15.5194 22.6926C17.2193 22.6926 18.806 23.2661 20.3685 24.4481L19.7866 25.2182C18.3777 24.1546 17.0226 23.6592 15.5194 23.6592C15.5167 23.6592 15.5167 23.6592 15.5167 23.6592C14.159 23.6592 12.8498 24.0604 11.4624 24.4831C9.96459 24.9382 8.43176 25.4067 6.73729 25.4067Z" fill="black"/>
<path d="M11.7144 24.0986C10.2435 22.3538 8.73226 21.1261 7.08628 20.3506C5.33524 19.524 3.44951 19.2117 1.31593 19.3948L1.23242 18.4336C3.5411 18.237 5.58847 18.579 7.49575 19.4783C9.27104 20.3156 10.8928 21.6242 12.4525 23.4793L11.7144 24.0986Z" fill="black"/>
<path d="M17.4436 21.4704L16.8105 20.7434C17.9339 19.7661 19.1731 19.0606 20.4985 18.6433C21.8212 18.2286 23.2625 18.0913 24.7764 18.2394L24.6821 19.2006C23.2975 19.066 21.9855 19.1872 20.7868 19.5641C19.5907 19.9384 18.4673 20.5819 17.4436 21.4704Z" fill="black"/>
<path d="M10.0506 17.8973L9.09961 17.7384C9.40941 15.8752 10.7025 14.8467 12.7418 14.8467V15.8106C11.9336 15.8106 11.2951 15.9964 10.848 16.3652C10.4304 16.7099 10.161 17.2241 10.0506 17.8973Z" fill="black"/>
<path d="M2.7198 12.3023L0.0976562 14.7388L0.754329 15.4447L3.37647 13.0083L2.7198 12.3023Z" fill="black"/>
<path d="M2.7312 12.2904L2.32422 13.1643L7.12333 15.397L7.53031 14.5231L2.7312 12.2904Z" fill="black"/>
</svg>
