<svg xmlns="http://www.w3.org/2000/svg" width="245" height="44" viewBox="0 0 245 44" fill="none"><path d="M51.2934 6.77894L54.8772 15.7358L58.4609 6.77894H60.3356V17.7564H58.8901V13.4815L59.0256 8.86737L55.4268 17.7564H54.32L50.7288 8.88999L50.8718 13.4815V17.7564H49.4263V6.77894H51.2934Z" fill="black"></path><path d="M67.6988 16.9497C67.1567 17.588 66.3612 17.9072 65.3122 17.9072C64.4438 17.9072 63.7813 17.6559 63.3246 17.1532C62.8728 16.6456 62.6444 15.8967 62.6394 14.9065V9.5987H64.0323V14.8688C64.0323 16.1053 64.5342 16.7235 65.538 16.7235C66.6021 16.7235 67.3098 16.3264 67.6612 15.5323V9.5987H69.054V17.7564H67.7289L67.6988 16.9497Z" fill="black"></path><path d="M72.4947 9.5987L72.5399 10.6241C73.1623 9.83996 73.9754 9.44791 74.9792 9.44791C76.7008 9.44791 77.5692 10.4205 77.5842 12.3657V17.7564H76.1914V12.3581C76.1864 11.7701 76.0508 11.3353 75.7848 11.0538C75.5238 10.7723 75.1147 10.6316 74.5576 10.6316C74.1059 10.6316 73.7094 10.7522 73.3681 10.9935C73.0267 11.2348 72.7607 11.5514 72.57 11.9435V17.7564H71.1772V9.5987H72.4947Z" fill="black"></path><path d="M81.1981 17.7564H79.8052V9.5987H81.1981V17.7564ZM79.6923 7.43487C79.6923 7.20869 79.7601 7.01769 79.8956 6.86187C80.0361 6.70606 80.2419 6.62815 80.5129 6.62815C80.784 6.62815 80.9898 6.70606 81.1303 6.86187C81.2708 7.01769 81.3411 7.20869 81.3411 7.43487C81.3411 7.66105 81.2708 7.84954 81.1303 8.00033C80.9898 8.15112 80.784 8.22651 80.5129 8.22651C80.2419 8.22651 80.0361 8.15112 79.8956 8.00033C79.7601 7.84954 79.6923 7.66105 79.6923 7.43487Z" fill="black"></path><path d="M86.7017 16.7687C87.1986 16.7687 87.6327 16.6179 88.0042 16.3164C88.3756 16.0148 88.5814 15.6378 88.6215 15.1854H89.9391C89.914 15.6529 89.7534 16.0977 89.4572 16.5199C89.1611 16.9421 88.7646 17.2789 88.2677 17.5302C87.7758 17.7815 87.2538 17.9072 86.7017 17.9072C85.5924 17.9072 84.709 17.5377 84.0515 16.7989C83.399 16.055 83.0728 15.0397 83.0728 13.7529V13.5192C83.0728 12.7251 83.2183 12.0189 83.5094 11.4006C83.8005 10.7824 84.2171 10.3024 84.7592 9.96059C85.3063 9.6188 85.9513 9.44791 86.6941 9.44791C87.6076 9.44791 88.3655 9.72184 88.9678 10.2697C89.5752 10.8176 89.8989 11.5288 89.9391 12.4034H88.6215C88.5814 11.8756 88.3806 11.4434 88.0192 11.1066C87.6628 10.7648 87.2212 10.5939 86.6941 10.5939C85.9864 10.5939 85.4368 10.8502 85.0453 11.3629C84.6588 11.8706 84.4656 12.6069 84.4656 13.572V13.8359C84.4656 14.7758 84.6588 15.4996 85.0453 16.0072C85.4318 16.5149 85.9839 16.7687 86.7017 16.7687Z" fill="black"></path><path d="M93.0184 17.7564H91.6255V9.5987H93.0184V17.7564ZM91.5126 7.43487C91.5126 7.20869 91.5804 7.01769 91.7159 6.86187C91.8564 6.70606 92.0622 6.62815 92.3332 6.62815C92.6043 6.62815 92.8101 6.70606 92.9506 6.86187C93.0912 7.01769 93.1614 7.20869 93.1614 7.43487C93.1614 7.66105 93.0912 7.84954 92.9506 8.00033C92.8101 8.15112 92.6043 8.22651 92.3332 8.22651C92.0622 8.22651 91.8564 8.15112 91.7159 8.00033C91.5804 7.84954 91.5126 7.66105 91.5126 7.43487Z" fill="black"></path><path d="M102.136 13.768C102.136 15.0095 101.852 16.0098 101.285 16.7687C100.718 17.5277 99.9499 17.9072 98.9812 17.9072C97.9924 17.9072 97.2145 17.593 96.6473 16.9647V20.8928H95.2544V9.5987H96.5268L96.5946 10.5034C97.1618 9.79975 97.9498 9.44791 98.9586 9.44791C99.9374 9.44791 100.71 9.81734 101.278 10.5562C101.85 11.2951 102.136 12.323 102.136 13.6398V13.768ZM100.743 13.6097C100.743 12.6899 100.547 11.9636 100.156 11.4308C99.7642 10.898 99.2272 10.6316 98.5446 10.6316C97.7013 10.6316 97.0689 11.0061 96.6473 11.755V15.6529C97.0639 16.3968 97.7013 16.7687 98.5596 16.7687C99.2272 16.7687 99.7567 16.5048 100.148 15.9771C100.545 15.4443 100.743 14.6552 100.743 13.6097Z" fill="black"></path><path d="M108.942 17.7564C108.862 17.5956 108.796 17.3091 108.746 16.8969C108.099 17.5704 107.326 17.9072 106.427 17.9072C105.624 17.9072 104.964 17.681 104.447 17.2286C103.935 16.7712 103.679 16.1932 103.679 15.4946C103.679 14.6451 104 13.9867 104.643 13.5192C105.29 13.0467 106.199 12.8105 107.368 12.8105H108.724V12.1697C108.724 11.6821 108.578 11.2951 108.287 11.0086C107.996 10.717 107.567 10.5713 106.999 10.5713C106.503 10.5713 106.086 10.6969 105.75 10.9483C105.413 11.1996 105.245 11.5037 105.245 11.8605H103.845C103.845 11.4534 103.988 11.0614 104.274 10.6844C104.565 10.3024 104.957 10.0008 105.449 9.77964C105.945 9.55849 106.49 9.44791 107.082 9.44791C108.021 9.44791 108.756 9.68414 109.288 10.1566C109.82 10.6241 110.096 11.2699 110.116 12.0943V15.8489C110.116 16.5978 110.212 17.1934 110.403 17.6358V17.7564H108.942ZM106.631 16.6933C107.067 16.6933 107.481 16.5802 107.873 16.3541C108.264 16.1279 108.548 15.8338 108.724 15.4719V13.7982H107.632C105.925 13.7982 105.072 14.2983 105.072 15.2985C105.072 15.7358 105.218 16.0776 105.509 16.3239C105.8 16.5702 106.174 16.6933 106.631 16.6933Z" fill="black"></path><path d="M113.813 17.7564H112.42V6.17578H113.813V17.7564Z" fill="black"></path><path d="M117.562 17.7564H116.17V9.5987H117.562V17.7564ZM116.057 7.43487C116.057 7.20869 116.124 7.01769 116.26 6.86187C116.401 6.70606 116.606 6.62815 116.877 6.62815C117.148 6.62815 117.354 6.70606 117.495 6.86187C117.635 7.01769 117.706 7.20869 117.706 7.43487C117.706 7.66105 117.635 7.84954 117.495 8.00033C117.354 8.15112 117.148 8.22651 116.877 8.22651C116.606 8.22651 116.401 8.15112 116.26 8.00033C116.124 7.84954 116.057 7.66105 116.057 7.43487Z" fill="black"></path><path d="M119.46 13.6097C119.46 12.3581 119.756 11.3529 120.348 10.5939C120.94 9.82991 121.716 9.44791 122.675 9.44791C123.628 9.44791 124.384 9.77462 124.941 10.428V6.17578H126.334V17.7564H125.054L124.986 16.8818C124.429 17.5654 123.653 17.9072 122.659 17.9072C121.716 17.9072 120.945 17.5202 120.348 16.7461C119.756 15.9721 119.46 14.9618 119.46 13.7152V13.6097ZM120.853 13.768C120.853 14.6929 121.043 15.4166 121.425 15.9394C121.806 16.4621 122.333 16.7235 123.006 16.7235C123.889 16.7235 124.534 16.3264 124.941 15.5323V11.7851C124.524 11.0161 123.884 10.6316 123.021 10.6316C122.338 10.6316 121.806 10.8955 121.425 11.4232C121.043 11.951 120.853 12.7326 120.853 13.768Z" fill="black"></path><path d="M133.531 17.7564C133.451 17.5956 133.386 17.3091 133.335 16.8969C132.688 17.5704 131.915 17.9072 131.017 17.9072C130.213 17.9072 129.553 17.681 129.036 17.2286C128.524 16.7712 128.268 16.1932 128.268 15.4946C128.268 14.6451 128.59 13.9867 129.232 13.5192C129.88 13.0467 130.788 12.8105 131.958 12.8105H133.313V12.1697C133.313 11.6821 133.167 11.2951 132.876 11.0086C132.585 10.717 132.156 10.5713 131.589 10.5713C131.092 10.5713 130.675 10.6969 130.339 10.9483C130.003 11.1996 129.835 11.5037 129.835 11.8605H128.434C128.434 11.4534 128.577 11.0614 128.863 10.6844C129.154 10.3024 129.546 10.0008 130.038 9.77964C130.535 9.55849 131.079 9.44791 131.672 9.44791C132.61 9.44791 133.345 9.68414 133.877 10.1566C134.41 10.6241 134.686 11.2699 134.706 12.0943V15.8489C134.706 16.5978 134.801 17.1934 134.992 17.6358V17.7564H133.531ZM131.22 16.6933C131.656 16.6933 132.071 16.5802 132.462 16.3541C132.854 16.1279 133.137 15.8338 133.313 15.4719V13.7982H132.221C130.515 13.7982 129.661 14.2983 129.661 15.2985C129.661 15.7358 129.807 16.0776 130.098 16.3239C130.389 16.5702 130.763 16.6933 131.22 16.6933Z" fill="black"></path><path d="M136.55 13.6097C136.55 12.3581 136.846 11.3529 137.439 10.5939C138.031 9.82991 138.806 9.44791 139.765 9.44791C140.719 9.44791 141.474 9.77462 142.031 10.428V6.17578H143.424V17.7564H142.144L142.076 16.8818C141.519 17.5654 140.744 17.9072 139.75 17.9072C138.806 17.9072 138.036 17.5202 137.439 16.7461C136.846 15.9721 136.55 14.9618 136.55 13.7152V13.6097ZM137.943 13.768C137.943 14.6929 138.134 15.4166 138.515 15.9394C138.897 16.4621 139.424 16.7235 140.096 16.7235C140.98 16.7235 141.625 16.3264 142.031 15.5323V11.7851C141.615 11.0161 140.975 10.6316 140.111 10.6316C139.429 10.6316 138.897 10.8955 138.515 11.4232C138.134 11.951 137.943 12.7326 137.943 13.768Z" fill="black"></path><path d="M48.8691 32.1387C48.8691 30.8871 49.1653 29.8819 49.7575 29.1229C50.3498 28.3589 51.1253 27.9769 52.084 27.9769C53.0376 27.9769 53.793 28.3036 54.3502 28.957V24.7048H55.743V36.2854H54.4631L54.3953 35.4108C53.8382 36.0944 53.0627 36.4362 52.0689 36.4362C51.1253 36.4362 50.3548 36.0491 49.7575 35.2751C49.1653 34.501 48.8691 33.4907 48.8691 32.2442V32.1387ZM50.262 32.297C50.262 33.2218 50.4527 33.9456 50.8342 34.4684C51.2156 34.9911 51.7427 35.2525 52.4152 35.2525C53.2986 35.2525 53.9436 34.8554 54.3502 34.0612V30.3141C53.9336 29.5451 53.2936 29.1606 52.4303 29.1606C51.7477 29.1606 51.2156 29.4245 50.8342 29.9522C50.4527 30.48 50.262 31.2616 50.262 32.297Z" fill="black"></path><path d="M61.2918 36.4362C60.1875 36.4362 59.2891 36.0743 58.5964 35.3505C57.9038 34.6217 57.5574 33.6491 57.5574 32.4327V32.1764C57.5574 31.3671 57.7105 30.6459 58.0167 30.0125C58.3279 29.3742 58.7596 28.8766 59.3117 28.5197C59.8688 28.1578 60.4711 27.9769 61.1186 27.9769C62.1777 27.9769 63.0008 28.3262 63.5881 29.0249C64.1753 29.7235 64.4689 30.7238 64.4689 32.0256V32.6061H58.9503C58.9704 33.4103 59.2038 34.0612 59.6505 34.5588C60.1022 35.0514 60.6744 35.2977 61.367 35.2977C61.8589 35.2977 62.2755 35.1972 62.6168 34.9961C62.9581 34.7951 63.2568 34.5287 63.5128 34.1969L64.3635 34.8604C63.6809 35.9109 62.657 36.4362 61.2918 36.4362ZM61.1186 29.1229C60.5564 29.1229 60.0846 29.329 59.7032 29.7411C59.3217 30.1482 59.0858 30.7212 58.9955 31.4601H63.0761V31.3546C63.0359 30.6459 62.8452 30.098 62.5039 29.711C62.1626 29.3189 61.7008 29.1229 61.1186 29.1229Z" fill="black"></path><path d="M71.5837 35.1017H76.7786V36.2854H70.1306V25.3079H71.5837V35.1017Z" fill="black"></path><path d="M83.2384 36.2854C83.1581 36.1245 83.0928 35.838 83.0426 35.4259C82.3952 36.0994 81.6222 36.4362 80.7237 36.4362C79.9207 36.4362 79.2606 36.21 78.7437 35.7576C78.2317 35.3002 77.9757 34.7222 77.9757 34.0235C77.9757 33.1741 78.2969 32.5156 78.9394 32.0482C79.5869 31.5757 80.4954 31.3395 81.6649 31.3395H83.02V30.6986C83.02 30.2111 82.8745 29.8241 82.5834 29.5376C82.2923 29.246 81.8631 29.1003 81.2959 29.1003C80.799 29.1003 80.3824 29.2259 80.0461 29.4772C79.7099 29.7286 79.5417 30.0326 79.5417 30.3895H78.1413C78.1413 29.9824 78.2844 29.5903 78.5705 29.2134C78.8616 28.8314 79.2531 28.5298 79.745 28.3086C80.2419 28.0875 80.7865 27.9769 81.3788 27.9769C82.3174 27.9769 83.0527 28.2131 83.5847 28.6856C84.1168 29.153 84.3928 29.7989 84.4129 30.6232V34.3779C84.4129 35.1268 84.5083 35.7224 84.699 36.1647V36.2854H83.2384ZM80.927 35.2223C81.3637 35.2223 81.7778 35.1092 82.1693 34.883C82.5608 34.6568 82.8444 34.3628 83.02 34.0009V32.3272H81.9284C80.2218 32.3272 79.3686 32.8273 79.3686 33.8275C79.3686 34.2648 79.5141 34.6066 79.8052 34.8529C80.0963 35.0992 80.4703 35.2223 80.927 35.2223Z" fill="black"></path><path d="M92.5064 25.3079L96.0902 34.2648L99.6739 25.3079H101.549V36.2854H100.103V32.0105L100.239 27.3963L96.6398 36.2854H95.533L91.9417 27.419L92.0848 32.0105V36.2854H90.6393V25.3079H92.5064Z" fill="black"></path><path d="M103.514 32.1311C103.514 31.3319 103.669 30.6132 103.98 29.9748C104.297 29.3365 104.733 28.8439 105.29 28.4971C105.853 28.1503 106.493 27.9769 107.21 27.9769C108.32 27.9769 109.215 28.3614 109.898 29.1304C110.586 29.8994 110.93 30.9223 110.93 32.199V32.297C110.93 33.0912 110.776 33.8049 110.47 34.4382C110.169 35.0665 109.735 35.5566 109.168 35.9084C108.606 36.2602 107.958 36.4362 107.225 36.4362C106.121 36.4362 105.225 36.0516 104.538 35.2826C103.855 34.5136 103.514 33.4958 103.514 32.2291V32.1311ZM104.914 32.297C104.914 33.2017 105.122 33.928 105.539 34.4759C105.96 35.0238 106.523 35.2977 107.225 35.2977C107.933 35.2977 108.495 35.0213 108.912 34.4684C109.328 33.9104 109.537 33.1314 109.537 32.1311C109.537 31.2364 109.323 30.5127 108.897 29.9598C108.475 29.4018 107.913 29.1229 107.21 29.1229C106.523 29.1229 105.968 29.3968 105.546 29.9447C105.125 30.4926 104.914 31.2767 104.914 32.297Z" fill="black"></path><path d="M114.19 36.2854H112.797V24.7048H114.19V36.2854Z" fill="black"></path><path d="M117.939 36.2854H116.546V28.1277H117.939V36.2854ZM116.433 25.9638C116.433 25.7377 116.501 25.5467 116.636 25.3908C116.777 25.235 116.983 25.1571 117.254 25.1571C117.525 25.1571 117.731 25.235 117.871 25.3908C118.012 25.5467 118.082 25.7377 118.082 25.9638C118.082 26.19 118.012 26.3785 117.871 26.5293C117.731 26.6801 117.525 26.7555 117.254 26.7555C116.983 26.7555 116.777 26.6801 116.636 26.5293C116.501 26.3785 116.433 26.19 116.433 25.9638Z" fill="black"></path><path d="M121.493 28.1277L121.538 29.153C122.16 28.3689 122.973 27.9769 123.977 27.9769C125.699 27.9769 126.567 28.9495 126.582 30.8947V36.2854H125.189V30.8871C125.184 30.299 125.049 29.8643 124.783 29.5828C124.522 29.3013 124.113 29.1606 123.555 29.1606C123.104 29.1606 122.707 29.2812 122.366 29.5225C122.025 29.7637 121.759 30.0804 121.568 30.4724V36.2854H120.175V28.1277H121.493Z" fill="black"></path><path d="M133.712 36.2854C133.632 36.1245 133.566 35.838 133.516 35.4259C132.869 36.0994 132.096 36.4362 131.197 36.4362C130.394 36.4362 129.734 36.21 129.217 35.7576C128.705 35.3002 128.449 34.7222 128.449 34.0235C128.449 33.1741 128.77 32.5156 129.413 32.0482C130.06 31.5757 130.969 31.3395 132.138 31.3395H133.494V30.6986C133.494 30.2111 133.348 29.8241 133.057 29.5376C132.766 29.246 132.337 29.1003 131.769 29.1003C131.273 29.1003 130.856 29.2259 130.52 29.4772C130.183 29.7286 130.015 30.0326 130.015 30.3895H128.615C128.615 29.9824 128.758 29.5903 129.044 29.2134C129.335 28.8314 129.727 28.5298 130.218 28.3086C130.715 28.0875 131.26 27.9769 131.852 27.9769C132.791 27.9769 133.526 28.2131 134.058 28.6856C134.59 29.153 134.866 29.7989 134.886 30.6232V34.3779C134.886 35.1268 134.982 35.7224 135.172 36.1647V36.2854H133.712ZM131.401 35.2223C131.837 35.2223 132.251 35.1092 132.643 34.883C133.034 34.6568 133.318 34.3628 133.494 34.0009V32.3272H132.402C130.695 32.3272 129.842 32.8273 129.842 33.8275C129.842 34.2648 129.988 34.6066 130.279 34.8529C130.57 35.0992 130.944 35.2223 131.401 35.2223Z" fill="black"></path><line x1="153.254" y1="6.17578" x2="153.254" y2="37.0574" stroke="black" stroke-width="0.5"></line><path d="M163.733 13.8359V17.9147H161.828V6.93727H166.022C167.246 6.93727 168.218 7.25644 168.935 7.89478C169.658 8.53312 170.02 9.37754 170.02 10.428C170.02 11.5037 169.666 12.3405 168.958 12.9387C168.255 13.5368 167.269 13.8359 165.999 13.8359H163.733ZM163.733 12.3054H166.022C166.699 12.3054 167.216 12.147 167.573 11.8304C167.929 11.5087 168.107 11.0463 168.107 10.4431C168.107 9.85001 167.927 9.37754 167.565 9.0257C167.204 8.66883 166.707 8.48537 166.074 8.47532H163.733V12.3054Z" fill="black"></path><path d="M173.46 17.9147H171.631V6.33411H173.46V17.9147Z" fill="black"></path><path d="M180.327 17.9147C180.246 17.7589 180.176 17.5051 180.116 17.1532C179.533 17.7614 178.821 18.0655 177.978 18.0655C177.159 18.0655 176.492 17.8318 175.975 17.3643C175.458 16.8969 175.199 16.3189 175.199 15.6303C175.199 14.7607 175.521 14.0947 176.163 13.6323C176.811 13.1649 177.734 12.9311 178.934 12.9311H180.055V12.3958C180.055 11.9736 179.938 11.6369 179.702 11.3855C179.466 11.1292 179.107 11.001 178.625 11.001C178.208 11.001 177.867 11.1066 177.601 11.3177C177.335 11.5238 177.202 11.7877 177.202 12.1093H175.373C175.373 11.662 175.521 11.2448 175.817 10.8578C176.113 10.4657 176.514 10.1591 177.021 9.93797C177.533 9.71681 178.103 9.60624 178.73 9.60624C179.684 9.60624 180.444 9.8475 181.012 10.33C181.579 10.8075 181.87 11.481 181.885 12.3506V16.0299C181.885 16.7637 181.988 17.3493 182.194 17.7866V17.9147H180.327ZM178.316 16.5953C178.678 16.5953 179.017 16.5074 179.333 16.3314C179.654 16.1555 179.895 15.9193 180.055 15.6227V14.0847H179.069C178.392 14.0847 177.882 14.2028 177.541 14.439C177.2 14.6753 177.029 15.0095 177.029 15.4418C177.029 15.7936 177.144 16.0751 177.375 16.2862C177.611 16.4923 177.925 16.5953 178.316 16.5953Z" fill="black"></path><path d="M186.094 7.77415V9.75703H187.532V11.1141H186.094V15.668C186.094 15.9796 186.154 16.2058 186.274 16.3465C186.4 16.4822 186.621 16.5501 186.937 16.5501C187.148 16.5501 187.361 16.5249 187.577 16.4747V17.8921C187.16 18.0077 186.759 18.0655 186.372 18.0655C184.967 18.0655 184.264 17.2889 184.264 15.7358V11.1141H182.924V9.75703H184.264V7.77415H186.094Z" fill="black"></path><path d="M193.803 17.9147C193.723 17.7589 193.653 17.5051 193.592 17.1532C193.01 17.7614 192.297 18.0655 191.454 18.0655C190.636 18.0655 189.968 17.8318 189.452 17.3643C188.935 16.8969 188.676 16.3189 188.676 15.6303C188.676 14.7607 188.997 14.0947 189.64 13.6323C190.287 13.1649 191.211 12.9311 192.41 12.9311H193.532V12.3958C193.532 11.9736 193.414 11.6369 193.178 11.3855C192.942 11.1292 192.584 11.001 192.102 11.001C191.685 11.001 191.344 11.1066 191.078 11.3177C190.812 11.5238 190.679 11.7877 190.679 12.1093H188.849C188.849 11.662 188.997 11.2448 189.293 10.8578C189.59 10.4657 189.991 10.1591 190.498 9.93797C191.01 9.71681 191.58 9.60624 192.207 9.60624C193.161 9.60624 193.921 9.8475 194.488 10.33C195.055 10.8075 195.347 11.481 195.362 12.3506V16.0299C195.362 16.7637 195.465 17.3493 195.67 17.7866V17.9147H193.803ZM191.793 16.5953C192.154 16.5953 192.493 16.5074 192.809 16.3314C193.131 16.1555 193.372 15.9193 193.532 15.6227V14.0847H192.546C191.868 14.0847 191.359 14.2028 191.018 14.439C190.676 14.6753 190.506 15.0095 190.506 15.4418C190.506 15.7936 190.621 16.0751 190.852 16.2862C191.088 16.4923 191.401 16.5953 191.793 16.5953Z" fill="black"></path><path d="M197.921 17.9147V11.1141H196.679V9.75703H197.921V9.01062C197.921 8.10588 198.172 7.40723 198.674 6.91465C199.176 6.42207 199.879 6.17578 200.782 6.17578C201.104 6.17578 201.445 6.22102 201.806 6.31149L201.761 7.74399C201.56 7.70378 201.327 7.68367 201.061 7.68367C200.188 7.68367 199.751 8.13353 199.751 9.03324V9.75703H201.407V11.1141H199.751V17.9147H197.921Z" fill="black"></path><path d="M202.401 13.7605C202.401 12.9613 202.559 12.2425 202.875 11.6042C203.192 10.9608 203.636 10.4682 204.208 10.1265C204.78 9.77964 205.438 9.60624 206.181 9.60624C207.28 9.60624 208.171 9.96059 208.853 10.6693C209.541 11.378 209.912 12.3179 209.968 13.4891L209.975 13.9188C209.975 14.723 209.82 15.4418 209.508 16.0751C209.202 16.7084 208.761 17.1985 208.183 17.5453C207.611 17.8921 206.949 18.0655 206.196 18.0655C205.046 18.0655 204.125 17.6835 203.433 16.9195C202.745 16.1505 202.401 15.1276 202.401 13.851V13.7605ZM204.231 13.9188C204.231 14.7582 204.404 15.4166 204.75 15.8941C205.096 16.3666 205.578 16.6029 206.196 16.6029C206.813 16.6029 207.292 16.3616 207.634 15.8791C207.98 15.3965 208.153 14.6903 208.153 13.7605C208.153 12.9362 207.975 12.2827 207.619 11.8002C207.267 11.3177 206.788 11.0764 206.181 11.0764C205.583 11.0764 205.109 11.3152 204.758 11.7927C204.406 12.2652 204.231 12.9739 204.231 13.9188Z" fill="black"></path><path d="M215.787 11.4308C215.547 11.3906 215.298 11.3705 215.042 11.3705C214.204 11.3705 213.639 11.6922 213.348 12.3355V17.9147H211.519V9.75703H213.265L213.31 10.6693C213.752 9.96059 214.365 9.60624 215.148 9.60624C215.409 9.60624 215.624 9.64142 215.795 9.71179L215.787 11.4308Z" fill="black"></path><path d="M218.663 9.75703L218.716 10.609C219.288 9.94049 220.071 9.60624 221.065 9.60624C222.154 9.60624 222.9 10.0234 223.301 10.8578C223.894 10.0234 224.727 9.60624 225.801 9.60624C226.699 9.60624 227.367 9.85504 227.804 10.3526C228.245 10.8502 228.471 11.5841 228.481 12.5542V17.9147H226.652V12.6069C226.652 12.0892 226.539 11.7097 226.313 11.4685C226.087 11.2272 225.713 11.1066 225.191 11.1066C224.774 11.1066 224.433 11.2197 224.167 11.4459C223.906 11.667 223.723 11.9585 223.617 12.3204L223.625 17.9147H221.795V12.5466C221.77 11.5866 221.281 11.1066 220.327 11.1066C219.595 11.1066 219.075 11.4057 218.769 12.0038V17.9147H216.939V9.75703H218.663Z" fill="black"></path><path d="M235.227 17.9147C235.147 17.7589 235.076 17.5051 235.016 17.1532C234.434 17.7614 233.721 18.0655 232.878 18.0655C232.06 18.0655 231.392 17.8318 230.875 17.3643C230.358 16.8969 230.1 16.3189 230.1 15.6303C230.1 14.7607 230.421 14.0947 231.064 13.6323C231.711 13.1649 232.635 12.9311 233.834 12.9311H234.956V12.3958C234.956 11.9736 234.838 11.6369 234.602 11.3855C234.366 11.1292 234.007 11.001 233.525 11.001C233.109 11.001 232.768 11.1066 232.502 11.3177C232.236 11.5238 232.102 11.7877 232.102 12.1093H230.273C230.273 11.662 230.421 11.2448 230.717 10.8578C231.013 10.4657 231.415 10.1591 231.922 9.93797C232.434 9.71681 233.003 9.60624 233.631 9.60624C234.585 9.60624 235.345 9.8475 235.912 10.33C236.479 10.8075 236.77 11.481 236.785 12.3506V16.0299C236.785 16.7637 236.888 17.3493 237.094 17.7866V17.9147H235.227ZM233.217 16.5953C233.578 16.5953 233.917 16.5074 234.233 16.3314C234.554 16.1555 234.795 15.9193 234.956 15.6227V14.0847H233.97C233.292 14.0847 232.783 14.2028 232.441 14.439C232.1 14.6753 231.929 15.0095 231.929 15.4418C231.929 15.7936 232.045 16.0751 232.276 16.2862C232.512 16.4923 232.825 16.5953 233.217 16.5953Z" fill="black"></path><path d="M163.838 36.4437H161.941V25.4662H163.838V36.4437Z" fill="black"></path><path d="M167.701 28.286L167.753 29.2284C168.356 28.4996 169.146 28.1352 170.125 28.1352C171.821 28.1352 172.685 29.1078 172.715 31.053V36.4437H170.885V31.1585C170.885 30.6408 170.772 30.2588 170.547 30.0125C170.326 29.7612 169.962 29.6356 169.455 29.6356C168.717 29.6356 168.167 29.9698 167.806 30.6383V36.4437H165.977V28.286H167.701Z" fill="black"></path><path d="M179.152 34.2271C179.152 33.9004 179.017 33.6516 178.745 33.4807C178.479 33.3098 178.035 33.159 177.413 33.0283C176.79 32.8976 176.271 32.7318 175.854 32.5307C174.941 32.0884 174.484 31.4476 174.484 30.6082C174.484 29.9045 174.78 29.3164 175.373 28.8439C175.965 28.3715 176.718 28.1352 177.631 28.1352C178.605 28.1352 179.39 28.3765 179.988 28.859C180.59 29.3415 180.891 29.9673 180.891 30.7363H179.062C179.062 30.3845 178.931 30.093 178.67 29.8618C178.409 29.6255 178.063 29.5074 177.631 29.5074C177.23 29.5074 176.901 29.6004 176.645 29.7864C176.394 29.9723 176.268 30.2211 176.268 30.5328C176.268 30.8142 176.386 31.0329 176.622 31.1887C176.858 31.3445 177.335 31.5028 178.053 31.6637C178.771 31.8195 179.333 32.008 179.739 32.2291C180.151 32.4453 180.455 32.7066 180.65 33.0132C180.851 33.3199 180.951 33.6918 180.951 34.1291C180.951 34.8629 180.648 35.4585 180.04 35.9159C179.433 36.3683 178.638 36.5945 177.654 36.5945C176.986 36.5945 176.391 36.4739 175.869 36.2326C175.347 35.9913 174.941 35.6596 174.65 35.2374C174.359 34.8152 174.213 34.3603 174.213 33.8727H175.99C176.015 34.305 176.178 34.6393 176.479 34.8755C176.78 35.1067 177.179 35.2223 177.676 35.2223C178.158 35.2223 178.525 35.1318 178.776 34.9509C179.027 34.7649 179.152 34.5237 179.152 34.2271Z" fill="black"></path><path d="M184.844 26.3031V28.286H186.282V29.6431H184.844V34.1969C184.844 34.5086 184.904 34.7348 185.025 34.8755C185.15 35.0112 185.371 35.0791 185.687 35.0791C185.898 35.0791 186.111 35.0539 186.327 35.0037V36.4211C185.91 36.5367 185.509 36.5945 185.122 36.5945C183.717 36.5945 183.014 35.8179 183.014 34.2648V29.6431H181.674V28.286H183.014V26.3031H184.844Z" fill="black"></path><path d="M189.632 36.4437H187.803V28.286H189.632V36.4437ZM187.69 26.1674C187.69 25.8859 187.778 25.6522 187.953 25.4662C188.134 25.2803 188.39 25.1873 188.721 25.1873C189.052 25.1873 189.308 25.2803 189.489 25.4662C189.67 25.6522 189.76 25.8859 189.76 26.1674C189.76 26.4439 189.67 26.6751 189.489 26.861C189.308 27.042 189.052 27.1325 188.721 27.1325C188.39 27.1325 188.134 27.042 187.953 26.861C187.778 26.6751 187.69 26.4439 187.69 26.1674Z" fill="black"></path><path d="M193.924 26.3031V28.286H195.362V29.6431H193.924V34.1969C193.924 34.5086 193.984 34.7348 194.104 34.8755C194.23 35.0112 194.451 35.0791 194.767 35.0791C194.978 35.0791 195.191 35.0539 195.407 35.0037V36.4211C194.99 36.5367 194.589 36.5945 194.202 36.5945C192.797 36.5945 192.094 35.8179 192.094 34.2648V29.6431H190.754V28.286H192.094V26.3031H193.924Z" fill="black"></path><path d="M201.701 35.6445C201.164 36.2778 200.401 36.5945 199.412 36.5945C198.529 36.5945 197.859 36.3356 197.402 35.8179C196.95 35.3002 196.724 34.5513 196.724 33.5712V28.286H198.554V33.5485C198.554 34.584 198.983 35.1017 199.841 35.1017C200.73 35.1017 201.33 34.7825 201.641 34.1442V28.286H203.47V36.4437H201.746L201.701 35.6445Z" fill="black"></path><path d="M208.68 35.1318C209.137 35.1318 209.516 34.9986 209.817 34.7322C210.118 34.4658 210.279 34.1366 210.299 33.7446H212.023C212.003 34.2522 211.845 34.7272 211.549 35.1695C211.253 35.6068 210.851 35.9536 210.344 36.21C209.837 36.4663 209.29 36.5945 208.703 36.5945C207.563 36.5945 206.66 36.2251 205.992 35.4862C205.325 34.7473 204.991 33.727 204.991 32.4252V32.2367C204.991 30.9952 205.322 30.0025 205.985 29.2586C206.647 28.5097 207.551 28.1352 208.695 28.1352C209.664 28.1352 210.452 28.4192 211.059 28.9872C211.672 29.5501 211.993 30.2915 212.023 31.2113H210.299C210.279 30.7439 210.118 30.3594 209.817 30.0578C209.521 29.7562 209.142 29.6054 208.68 29.6054C208.088 29.6054 207.631 29.8215 207.31 30.2538C206.989 30.681 206.826 31.3319 206.821 32.2065V32.5006C206.821 33.3852 206.979 34.0462 207.295 34.4834C207.616 34.9157 208.078 35.1318 208.68 35.1318Z" fill="black"></path><path d="M215.351 36.4437H213.521V28.286H215.351V36.4437ZM213.408 26.1674C213.408 25.8859 213.496 25.6522 213.672 25.4662C213.853 25.2803 214.109 25.1873 214.44 25.1873C214.771 25.1873 215.027 25.2803 215.208 25.4662C215.388 25.6522 215.479 25.8859 215.479 26.1674C215.479 26.4439 215.388 26.6751 215.208 26.861C215.027 27.042 214.771 27.1325 214.44 27.1325C214.109 27.1325 213.853 27.042 213.672 26.861C213.496 26.6751 213.408 26.4439 213.408 26.1674Z" fill="black"></path><path d="M217.007 32.2895C217.007 31.4903 217.165 30.7715 217.481 30.1332C217.798 29.4898 218.242 28.9972 218.814 28.6554C219.386 28.3086 220.044 28.1352 220.787 28.1352C221.886 28.1352 222.777 28.4896 223.459 29.1983C224.147 29.907 224.518 30.8469 224.574 32.018L224.581 32.4478C224.581 33.252 224.426 33.9708 224.114 34.6041C223.808 35.2374 223.367 35.7275 222.789 36.0743C222.217 36.4211 221.555 36.5945 220.802 36.5945C219.652 36.5945 218.731 36.2125 218.039 35.4485C217.351 34.6795 217.007 33.6566 217.007 32.3799V32.2895ZM218.837 32.4478C218.837 33.2872 219.01 33.9456 219.356 34.4231C219.702 34.8956 220.184 35.1318 220.802 35.1318C221.419 35.1318 221.898 34.8906 222.24 34.408C222.586 33.9255 222.759 33.2193 222.759 32.2895C222.759 31.4651 222.581 30.8117 222.225 30.3292C221.873 29.8467 221.394 29.6054 220.787 29.6054C220.189 29.6054 219.715 29.8442 219.364 30.3217C219.012 30.7941 218.837 31.5028 218.837 32.4478Z" fill="black"></path><path d="M227.826 28.286L227.879 29.2284C228.481 28.4996 229.272 28.1352 230.25 28.1352C231.947 28.1352 232.81 29.1078 232.84 31.053V36.4437H231.011V31.1585C231.011 30.6408 230.898 30.2588 230.672 30.0125C230.451 29.7612 230.087 29.6356 229.58 29.6356C228.843 29.6356 228.293 29.9698 227.932 30.6383V36.4437H226.102V28.286H227.826Z" fill="black"></path><path d="M239.579 36.4437C239.498 36.2879 239.428 36.0341 239.368 35.6822C238.786 36.2904 238.073 36.5945 237.23 36.5945C236.412 36.5945 235.744 36.3608 235.227 35.8933C234.71 35.4259 234.452 34.8478 234.452 34.1592C234.452 33.2897 234.773 32.6237 235.415 32.1613C236.063 31.6938 236.986 31.4601 238.186 31.4601H239.308V30.9248C239.308 30.5026 239.19 30.1658 238.954 29.9145C238.718 29.6582 238.359 29.53 237.877 29.53C237.461 29.53 237.119 29.6356 236.853 29.8467C236.587 30.0528 236.454 30.3166 236.454 30.6383H234.625C234.625 30.191 234.773 29.7738 235.069 29.3868C235.365 28.9947 235.767 28.6881 236.273 28.467C236.785 28.2458 237.355 28.1352 237.983 28.1352C238.936 28.1352 239.697 28.3765 240.264 28.859C240.831 29.3365 241.122 30.01 241.137 30.8796V34.5588C241.137 35.2927 241.24 35.8782 241.446 36.3155V36.4437H239.579ZM237.568 35.1243C237.93 35.1243 238.269 35.0363 238.585 34.8604C238.906 34.6845 239.147 34.4483 239.308 34.1517V32.6137H238.321C237.644 32.6137 237.134 32.7318 236.793 32.968C236.452 33.2042 236.281 33.5385 236.281 33.9708C236.281 34.3226 236.396 34.6041 236.627 34.8152C236.863 35.0213 237.177 35.1243 237.568 35.1243Z" fill="black"></path><path d="M244.999 36.4437H243.17V24.8631H244.999V36.4437Z" fill="black"></path><path d="M19.3962 21.7099C22.1812 21.7099 24.4388 19.5787 24.4388 16.9497C24.4388 14.3207 22.1812 12.1895 19.3962 12.1895C16.6112 12.1895 14.3535 14.3207 14.3535 16.9497C14.3535 19.5787 16.6112 21.7099 19.3962 21.7099Z" fill="#D47C2A"></path><path d="M19.959 28.6588L39.2907 21.2378L38.3976 7.95898L23.8594 19.1009L15.0742 26.5177L19.959 28.6588Z" fill="#467646"></path><path d="M29.9489 34.6658L16.4408 27.6939L1.24219 26.1016L1.36265 28.6958L9.83633 30.1343L18.8791 35.8299L26.9 36.2415L31.2324 37.4887L29.9489 34.6658Z" fill="#B7C64F"></path><path d="M38.2433 25.3789L20.623 28.6342L26.0562 31.7522L38.0938 28.1228L38.2433 25.3789Z" fill="#B7C64F"></path><path d="M31.9182 37.8936L38.1821 29.2129L32.2879 29.2628L26.7676 32.1938L31.9182 37.8936Z" fill="#F2E935"></path><path d="M10.4198 38.9548L5.28571 36.3481L1.90039 29.4219L11.8902 30.6234L18.6027 36.4978L10.4198 38.9548Z" fill="#F2E935"></path><path d="M29.9417 39.5922L22.3527 42.3527L10.5228 40.7105L9.7793 38.6277L22.3444 36.0293L28.4546 36.4658L30.465 38.1122L29.9417 39.5922Z" fill="#B1D5E4"></path><path d="M38.5782 25.4711L22.9434 27.3877L22.9807 24.1324L26.1293 24.1075L26.1044 21.4883H38.5782V25.4711Z" fill="#FBFBFB"></path><path d="M15.8737 26.0075L13.5309 27.5125L11.5039 26.0075V21.4219H15.8737V26.0075Z" fill="#FBFBFB"></path><path d="M1.05287 26.4482L0.886719 22.9227L4.35927 19.3848L11.2878 22.9227L11.2961 26.6727L1.05287 26.4482Z" fill="#FBFBFB"></path><path d="M0.547199 9.01621L0.148438 8.23462L0.883654 8.22215C2.53685 8.19304 3.9159 8.60463 4.98342 9.44027C5.92217 10.1761 6.62 11.2404 7.06446 12.6082H7.06861C8.52243 12.6082 9.75194 12.9159 10.7322 13.527C11.7831 14.1797 12.5599 15.1817 13.0459 16.5079C13.8766 16.4996 14.6908 16.6326 15.4758 16.907C16.4146 17.2354 17.262 17.7551 17.9972 18.4452C18.8487 19.2435 19.4925 20.2371 19.8996 21.3388C19.9577 21.2349 19.4925 21.2723 18.695 21.3637C18.4001 21.397 19.9827 23.1015 17.8892 23.6087C16.452 23.958 17.1249 21.5508 16.83 21.5841C13.2743 21.9832 7.64183 22.4156 5.58987 20.3576C4.38943 19.152 2.24609 23.5921 1.2118 22.1661C-0.121557 20.3244 0.418432 20.2454 0.547199 9.01621Z" fill="#467646"></path><path d="M6.61495 13.0677L4.55469 10.3778C5.38129 8.64417 6.41142 7.07682 7.61601 5.72566C8.76245 4.43686 10.0667 3.33515 11.4956 2.45377C14.2205 0.774177 17.34 -0.0739359 20.5134 0.00505504C23.5665 0.0798886 26.5115 1.01115 29.0287 2.6949C31.6829 4.47844 33.7723 7.05188 35.0641 10.1492L33.2281 13.5167C28.0899 12.4648 26.4035 18.0233 25.5104 18.0233C24.2892 18.0233 24.1231 12.1406 19.6453 12.1738C16.7626 12.1946 14.8726 13.7744 12.9204 17.0879C12.1436 18.4099 12.127 15.7492 9.85073 13.7744C9.35228 13.3421 8.85383 13.3171 6.61495 13.0677Z" fill="#F2E935"></path><path d="M5.89635 11.0222L4.55469 10.3778C5.38129 8.64417 6.41142 7.07682 7.61601 5.72566C8.76245 4.43686 10.0667 3.33515 11.4956 2.45377C14.2205 0.774177 17.34 -0.0739359 20.5134 0.00505505C23.5665 0.0798886 26.5115 1.01115 29.0287 2.6949C31.6829 4.47844 33.7723 7.05188 35.0641 10.1492L33.6933 10.7229C32.5095 7.89583 30.6112 5.55105 28.1979 3.93797C25.9175 2.4122 23.2466 1.56824 20.4719 1.50173C17.5892 1.43105 14.7522 2.20017 12.2724 3.7301C10.9681 4.53248 9.77597 5.53858 8.72506 6.72344C7.61601 7.96651 6.6648 9.41329 5.89635 11.0222Z" fill="black"></path><path d="M25.4477 18.7616L23.9731 18.5787C24.2597 16.2796 23.6034 14.4462 22.1206 13.4193C20.7041 12.4382 18.6854 12.3342 17.0945 13.1699C16.1765 13.6521 14.6355 14.8619 14.6355 17.5518H13.1484C13.1484 15.0116 14.3364 12.9371 16.405 11.852C17.4185 11.3198 18.5691 11.0704 19.7321 11.1244C20.9201 11.1785 22.0375 11.5526 22.9679 12.197C23.8817 12.8331 24.592 13.727 25.0199 14.7829C25.4893 15.9345 25.6346 17.2774 25.4477 18.7616Z" fill="black"></path><path d="M12.0281 20.6719H10.541V26.8623H12.0281V20.6719Z" fill="black"></path><path d="M17.2019 20.6719H15.7148V24.3762H17.2019V20.6719Z" fill="black"></path><path d="M16.6474 20.6738H11.2891V22.1622H16.6474V20.6738Z" fill="black"></path><path d="M20.068 29.8929L19.5488 28.496C19.6776 28.4462 20.1677 28.2508 20.687 28.047C21.2436 27.8267 21.7129 27.6396 22.066 27.5024L22.0535 23.5903H25.2727L25.2353 19.9941H34.2822V21.1873H39.6655V24.7003C39.6655 25.5609 38.9635 26.2635 38.0995 26.2677C32.8326 26.2885 27.8522 27.0825 23.2997 28.6291C23.254 28.6457 23.2083 28.6582 23.1626 28.6748C22.9715 28.7413 21.9705 29.1404 21.2394 29.4315C20.6662 29.6601 20.2134 29.8389 20.068 29.8929ZM23.5447 25.0828L23.5531 26.9827C28.0557 25.5401 32.9447 24.8043 38.0912 24.7835C38.1411 24.7835 38.1743 24.7502 38.1743 24.7045V22.6798H32.791V21.4867H26.7348L26.7722 25.0828H23.5447Z" fill="black"></path><path d="M30.9104 22.6309H28.7754V26.0774H30.9104V22.6309Z" fill="black"></path><path d="M19.8586 43.2367C19.0652 43.2367 17.0215 43.1702 14.5293 42.5632C11.9664 41.9396 9.71507 40.9543 7.84588 39.6281C5.53224 37.9859 3.57166 35.5372 2.1843 32.5438C0.693105 29.3343 -0.0587259 25.6259 0.00358046 21.8219C0.165577 12.027 0.157269 9.00038 0.157269 8.97128L0.153116 8.23542L0.888331 8.22294C2.54153 8.19384 3.92058 8.60543 4.98809 9.44107C5.92684 10.1769 6.62467 11.2412 7.06913 12.609H7.07328C8.5271 12.609 9.75661 12.9167 10.7369 13.5278C11.7878 14.1805 12.5646 15.1825 13.0505 16.5087C13.8813 16.5004 14.6954 16.6334 15.4805 16.9078C16.4192 17.2362 17.2666 17.7559 18.0018 18.446C18.8533 19.2443 19.4972 20.2379 19.9042 21.3396C20.3362 20.5497 20.8928 19.8471 21.5533 19.2609C22.7122 18.2382 24.1328 17.6353 25.5201 17.5688C26.0809 16.0472 26.9698 14.8748 28.1619 14.0849C29.3499 13.295 30.8536 12.8834 32.6397 12.8502C32.8681 11.3701 33.458 10.1769 34.4009 9.29972C35.4559 8.31441 36.9513 7.72405 38.8537 7.54944L39.6512 7.47461L39.6637 8.27699C39.6637 8.35598 39.7841 16.1096 39.726 23.7675C39.7094 25.9419 39.2358 28.2575 38.3552 30.4693C37.4497 32.7476 36.1081 34.9136 34.4756 36.7304C32.6937 38.7176 30.6002 40.285 28.2533 41.3908C25.678 42.6048 22.8617 43.2201 19.8835 43.2284C19.8793 43.2367 19.8669 43.2367 19.8586 43.2367ZM1.64016 9.73624C1.63185 11.1539 1.60278 14.7085 1.48647 21.8426C1.42832 25.4263 2.13446 28.9061 3.53012 31.9119C4.81363 34.6724 6.59975 36.9174 8.70571 38.4058C13.1752 41.5696 18.7329 41.7401 19.8627 41.7401C19.871 41.7401 19.8793 41.7401 19.8835 41.7401C22.6416 41.7359 25.246 41.1663 27.6219 40.0438C29.786 39.0253 31.7217 37.5743 33.3707 35.7367C36.3864 32.3734 38.2057 27.8958 38.2389 23.7551C38.2846 17.5813 38.2182 11.341 38.1891 9.13342C37.0094 9.34129 36.0831 9.76119 35.4185 10.3806C34.6044 11.1415 34.1558 12.2099 34.0478 13.6525L33.9938 14.3635L33.2794 14.351C31.5099 14.2886 30.0643 14.6171 28.9885 15.3321C27.9418 16.0264 27.219 17.0741 26.7704 18.5375L26.6001 19.0988L26.0144 19.0655C24.8348 18.9948 23.572 19.4771 22.5419 20.3834C21.3913 21.402 20.6312 22.8862 20.4027 24.5574L18.9198 24.4327C18.9821 22.5369 18.276 20.7492 16.98 19.5353C15.7796 18.4086 14.2219 17.8723 12.5895 18.0261L11.9747 18.0843L11.8044 17.4898C11.1066 15.0328 9.44092 13.9602 6.55406 14.1182L5.94346 14.1514L5.78977 13.5611C5.44916 12.2349 4.86763 11.2454 4.06596 10.6176C3.43459 10.1146 2.6163 9.81939 1.64016 9.73624Z" fill="black"></path><path d="M31.479 38.5047C28.4509 34.5718 24.3969 31.6075 19.4207 29.6993C14.2534 27.7079 8.09336 26.8598 1.11919 27.1674L1.05273 25.6791C8.23459 25.3589 14.594 26.2445 19.9565 28.3065C25.1902 30.3187 29.4603 33.4451 32.6587 37.5942L31.479 38.5047Z" fill="black"></path><path d="M10.3888 39.2336C9.26732 39.2336 8.10427 39.1006 6.87891 38.7763L7.22367 37.3379C10.8914 38.3107 14.1355 37.3296 17.2384 36.3817C19.3859 35.7248 21.6082 35.043 23.9218 35.043C23.9218 35.043 23.926 35.043 23.9301 35.043C26.5511 35.043 28.9977 35.9285 31.4069 37.7536L30.5097 38.9426C28.3372 37.3004 26.2479 36.5355 23.9301 36.5355C23.926 36.5355 23.926 36.5355 23.926 36.5355C21.8325 36.5355 19.8137 37.1549 17.6745 37.8077C15.365 38.5103 13.0016 39.2336 10.3888 39.2336Z" fill="black"></path><path d="M18.0627 37.209C15.7947 34.515 13.4645 32.6192 10.9265 31.4219C8.22657 30.1456 5.31894 29.6633 2.02916 29.946L1.90039 28.4618C5.46016 28.1583 8.61702 28.6863 11.5579 30.0749C14.2952 31.3678 16.7958 33.3884 19.2008 36.2528L18.0627 37.209Z" fill="black"></path><path d="M26.898 33.1523L25.9219 32.0298C27.654 30.5207 29.5647 29.4314 31.6084 28.787C33.6479 28.1468 35.8701 27.9348 38.2046 28.1634L38.0592 29.6476C35.9241 29.4398 33.9013 29.6268 32.0528 30.2089C30.2086 30.7868 28.4764 31.7804 26.898 33.1523Z" fill="black"></path><path d="M15.4975 27.6342L14.0312 27.3889C14.5089 24.512 16.5027 22.9238 19.6471 22.9238V24.4122C18.401 24.4122 17.4166 24.699 16.727 25.2686C16.0832 25.8008 15.6678 26.5948 15.4975 27.6342Z" fill="black"></path><path d="M4.19154 18.9918L0.148438 22.7539L1.16097 23.844L5.20407 20.0819L4.19154 18.9918Z" fill="black"></path><path d="M4.21152 18.9768L3.58398 20.3262L10.9838 23.7736L11.6113 22.4243L4.21152 18.9768Z" fill="black"></path></svg>